solid OpenSCAD_Model
  facet normal -1 0 0
    outer loop
      vertex 56.7007 32.7477 92.16
      vertex 56.7007 32.7362 92.16
      vertex 56.7007 32.7477 93.173
    endloop
  endfacet
  facet normal -1 0 0
    outer loop
      vertex 56.7007 32.7477 93.173
      vertex 56.7007 34.3915 117.958
      vertex 56.7007 34.3915 93.173
    endloop
  endfacet
  facet normal -1 0 0
    outer loop
      vertex 56.7007 32.7477 93.173
      vertex 56.7007 32.7362 117.958
      vertex 56.7007 34.3915 117.958
    endloop
  endfacet
  facet normal -1 0 0
    outer loop
      vertex 56.7007 32.7362 117.958
      vertex 56.7007 32.7477 93.173
      vertex 56.7007 32.7362 92.16
    endloop
  endfacet
  facet normal -1 0 0
    outer loop
      vertex 56.7007 38.9323 93.173
      vertex 56.7007 38.9438 92.16
      vertex 56.7007 38.9323 92.16
    endloop
  endfacet
  facet normal -1 0 0
    outer loop
      vertex 56.7007 38.9438 92.16
      vertex 56.7007 38.9323 93.173
      vertex 56.7007 38.9438 117.958
    endloop
  endfacet
  facet normal -1 0 0
    outer loop
      vertex 56.7007 37.2885 93.173
      vertex 56.7007 38.9438 117.958
      vertex 56.7007 38.9323 93.173
    endloop
  endfacet
  facet normal -1 -0 0
    outer loop
      vertex 56.7007 38.9438 117.958
      vertex 56.7007 37.2885 93.173
      vertex 56.7007 37.2885 117.958
    endloop
  endfacet
  facet normal -0 0 1
    outer loop
      vertex 35.4379 49.5645 104.426
      vertex 35.438 22.1155 104.426
      vertex 35.438 49.5645 104.426
    endloop
  endfacet
  facet normal 0 0 1
    outer loop
      vertex 35.438 22.1155 104.426
      vertex 35.4379 49.5645 104.426
      vertex 35.4379 22.1155 104.426
    endloop
  endfacet
  facet normal -0 0 1
    outer loop
      vertex 30.1222 52.6335 107.495
      vertex 30.1223 19.0465 107.495
      vertex 30.1223 52.6335 107.495
    endloop
  endfacet
  facet normal 0 0 1
    outer loop
      vertex 30.1223 19.0465 107.495
      vertex 30.1222 52.6335 107.495
      vertex 30.1222 19.0465 107.495
    endloop
  endfacet
  facet normal 0 0 1
    outer loop
      vertex 31.8941 20.0695 106.472
      vertex 31.8942 51.6105 106.472
      vertex 31.8941 51.6105 106.472
    endloop
  endfacet
  facet normal 0 0 1
    outer loop
      vertex 31.8942 51.6105 106.472
      vertex 31.8941 20.0695 106.472
      vertex 31.8942 20.0695 106.472
    endloop
  endfacet
  facet normal -0 0 1
    outer loop
      vertex 33.666 50.5875 105.449
      vertex 33.6661 21.0925 105.449
      vertex 33.6661 50.5875 105.449
    endloop
  endfacet
  facet normal 0 0 1
    outer loop
      vertex 33.6661 21.0925 105.449
      vertex 33.666 50.5875 105.449
      vertex 33.666 21.0925 105.449
    endloop
  endfacet
  facet normal -0.499997 0.866027 -8.40707e-16
    outer loop
      vertex 31.8941 20.0695 107.495
      vertex 30.1222 19.0465 108.518
      vertex 56.7007 34.3915 117.958
    endloop
  endfacet
  facet normal -0.500019 0.866015 -4.88777e-05
    outer loop
      vertex 30.1223 19.0465 107.495
      vertex 30.1222 19.0465 108.518
      vertex 31.8941 20.0695 107.495
    endloop
  endfacet
  facet normal -0.499997 0.866027 1.191e-15
    outer loop
      vertex 33.666 21.0925 106.472
      vertex 31.8941 20.0695 107.495
      vertex 56.7007 34.3915 117.958
    endloop
  endfacet
  facet normal -0.500019 0.866015 -4.88777e-05
    outer loop
      vertex 31.8942 20.0695 106.472
      vertex 31.8941 20.0695 107.495
      vertex 33.666 21.0925 106.472
    endloop
  endfacet
  facet normal -0.499993 0.86603 -1.28378e-05
    outer loop
      vertex 35.0342 21.8824 105.449
      vertex 33.666 21.0925 106.472
      vertex 56.7007 34.3915 117.958
    endloop
  endfacet
  facet normal -0.500013 0.866018 -4.88771e-05
    outer loop
      vertex 33.6661 21.0925 105.449
      vertex 33.666 21.0925 106.472
      vertex 35.0342 21.8824 105.449
    endloop
  endfacet
  facet normal 0 1 0
    outer loop
      vertex 33.666 21.0925 106.472
      vertex 33.6661 21.0925 105.449
      vertex 33.666 21.0925 105.449
    endloop
  endfacet
  facet normal -0.500011 0.866019 0
    outer loop
      vertex 59.2095 35.84 89.59
      vertex 56.7007 34.3915 117.958
      vertex 59.2095 35.84 126.335
    endloop
  endfacet
  facet normal -0.499997 0.866027 1.29248e-05
    outer loop
      vertex 56.7007 34.3915 93.173
      vertex 59.2095 35.84 89.59
      vertex 54.9288 33.3685 93.173
    endloop
  endfacet
  facet normal -0.500011 0.866019 0
    outer loop
      vertex 56.7007 34.3915 117.958
      vertex 59.2095 35.84 89.59
      vertex 56.7007 34.3915 93.173
    endloop
  endfacet
  facet normal -0.499996 0.866028 -6.18622e-06
    outer loop
      vertex 30.1222 19.0465 108.518
      vertex 59.2095 35.84 126.335
      vertex 56.7007 34.3915 117.958
    endloop
  endfacet
  facet normal -0.500013 0.866018 3.19152e-05
    outer loop
      vertex 28.9538 18.3719 108.518
      vertex 59.2095 35.84 126.335
      vertex 30.1222 19.0465 108.518
    endloop
  endfacet
  facet normal -0.499964 0.866046 -8.66829e-05
    outer loop
      vertex 1.43359 2.48306 92.9777
      vertex 28.9538 18.3719 108.518
      vertex 12.1856 8.69073 98.837
    endloop
  endfacet
  facet normal -0.500041 0.866002 9.44067e-05
    outer loop
      vertex 28.9538 18.3719 108.518
      vertex 1.43359 2.48306 92.9777
      vertex 59.2095 35.84 126.335
    endloop
  endfacet
  facet normal -0.5 0.866026 0
    outer loop
      vertex 12.1856 8.69073 89.59
      vertex 1.43359 2.48306 92.9777
      vertex 12.1856 8.69073 98.837
    endloop
  endfacet
  facet normal -0.5 0.866026 0
    outer loop
      vertex 1.43359 2.48306 92.9777
      vertex 12.1856 8.69073 89.59
      vertex 1.43359 2.48306 89.59
    endloop
  endfacet
  facet normal 0 1 0
    outer loop
      vertex 30.1222 19.0465 108.518
      vertex 30.1223 19.0465 107.495
      vertex 30.1222 19.0465 107.495
    endloop
  endfacet
  facet normal 0 1 0
    outer loop
      vertex 31.8941 20.0695 107.495
      vertex 31.8942 20.0695 106.472
      vertex 31.8941 20.0695 106.472
    endloop
  endfacet
  facet normal -0.499997 0.866027 0
    outer loop
      vertex 54.9288 33.3685 94.196
      vertex 54.9288 33.3685 93.173
      vertex 53.1569 32.3455 94.196
    endloop
  endfacet
  facet normal -0.499997 0.866027 0
    outer loop
      vertex 53.1569 32.3455 95.219
      vertex 53.1569 32.3455 94.196
      vertex 51.385 31.3225 95.219
    endloop
  endfacet
  facet normal -0.501718 0.865031 0
    outer loop
      vertex 51.385 31.3225 95.219
      vertex 51.375 31.3167 96.242
      vertex 51.385 31.3225 96.242
    endloop
  endfacet
  facet normal -0.499999 0.866026 -4.07848e-06
    outer loop
      vertex 51.375 31.3167 89.59
      vertex 51.385 31.3225 95.219
      vertex 53.1569 32.3455 94.196
    endloop
  endfacet
  facet normal -0.500004 0.866023 2.35826e-06
    outer loop
      vertex 51.375 31.3167 89.59
      vertex 54.9288 33.3685 93.173
      vertex 59.2095 35.84 89.59
    endloop
  endfacet
  facet normal -0.499999 0.866026 -4.07848e-06
    outer loop
      vertex 54.9288 33.3685 93.173
      vertex 51.375 31.3167 89.59
      vertex 53.1569 32.3455 94.196
    endloop
  endfacet
  facet normal -0.501718 0.865031 0
    outer loop
      vertex 51.385 31.3225 95.219
      vertex 51.375 31.3167 89.59
      vertex 51.375 31.3167 96.242
    endloop
  endfacet
  facet normal -0.495203 -0.868777 0
    outer loop
      vertex 51.375 40.3632 96.242
      vertex 51.385 40.3575 95.219
      vertex 51.385 40.3575 96.242
    endloop
  endfacet
  facet normal -0.499997 -0.866027 0
    outer loop
      vertex 51.385 40.3575 95.219
      vertex 53.1569 39.3345 94.196
      vertex 53.1569 39.3345 95.219
    endloop
  endfacet
  facet normal -0.499993 -0.86603 1.12909e-05
    outer loop
      vertex 51.385 40.3575 95.219
      vertex 51.375 40.3632 89.59
      vertex 53.1569 39.3345 94.196
    endloop
  endfacet
  facet normal -0.499997 -0.866027 0
    outer loop
      vertex 53.1569 39.3345 94.196
      vertex 54.9288 38.3115 93.173
      vertex 54.9288 38.3115 94.196
    endloop
  endfacet
  facet normal -0.499993 -0.86603 1.12909e-05
    outer loop
      vertex 51.375 40.3632 89.59
      vertex 54.9288 38.3115 93.173
      vertex 53.1569 39.3345 94.196
    endloop
  endfacet
  facet normal -0.499996 -0.866028 1.55648e-05
    outer loop
      vertex 59.2095 35.84 89.59
      vertex 54.9288 38.3115 93.173
      vertex 51.375 40.3632 89.59
    endloop
  endfacet
  facet normal -0.495203 -0.868777 0
    outer loop
      vertex 51.375 40.3632 89.59
      vertex 51.385 40.3575 95.219
      vertex 51.375 40.3632 96.242
    endloop
  endfacet
  facet normal -0.500013 -0.866018 3.19152e-05
    outer loop
      vertex 30.1222 52.6335 108.518
      vertex 59.2095 35.84 126.335
      vertex 28.9538 53.3081 108.518
    endloop
  endfacet
  facet normal -0.500018 -0.866015 4.23813e-05
    outer loop
      vertex 1.43359 69.1969 92.9777
      vertex 28.9538 53.3081 108.518
      vertex 59.2095 35.84 126.335
    endloop
  endfacet
  facet normal -0.499869 -0.866101 -0.000308591
    outer loop
      vertex 28.9538 53.3081 108.518
      vertex 1.43359 69.1969 92.9777
      vertex 12.1856 62.9893 98.837
    endloop
  endfacet
  facet normal -0.499995 -0.866028 0
    outer loop
      vertex 12.1856 62.9893 89.59
      vertex 1.43359 69.1969 92.9777
      vertex 1.43359 69.1969 89.59
    endloop
  endfacet
  facet normal -0.499995 -0.866028 0
    outer loop
      vertex 1.43359 69.1969 92.9777
      vertex 12.1856 62.9893 89.59
      vertex 12.1856 62.9893 98.837
    endloop
  endfacet
  facet normal -0.500011 -0.866019 0
    outer loop
      vertex 59.2095 35.84 89.59
      vertex 56.7007 37.2885 117.958
      vertex 56.7007 37.2885 93.173
    endloop
  endfacet
  facet normal -0.500011 -0.866019 0
    outer loop
      vertex 56.7007 37.2885 117.958
      vertex 59.2095 35.84 89.59
      vertex 59.2095 35.84 126.335
    endloop
  endfacet
  facet normal -0.499997 -0.866027 1.29248e-05
    outer loop
      vertex 54.9288 38.3115 93.173
      vertex 59.2095 35.84 89.59
      vertex 56.7007 37.2885 93.173
    endloop
  endfacet
  facet normal -0.499996 -0.866028 -6.18622e-06
    outer loop
      vertex 59.2095 35.84 126.335
      vertex 30.1222 52.6335 108.518
      vertex 56.7007 37.2885 117.958
    endloop
  endfacet
  facet normal 0 -1 0
    outer loop
      vertex 30.1223 52.6335 107.495
      vertex 30.1222 52.6335 108.518
      vertex 30.1222 52.6335 107.495
    endloop
  endfacet
  facet normal -0.500019 -0.866015 -4.88777e-05
    outer loop
      vertex 30.1222 52.6335 108.518
      vertex 30.1223 52.6335 107.495
      vertex 31.8941 51.6105 107.495
    endloop
  endfacet
  facet normal -0.499997 -0.866027 -2.7323e-15
    outer loop
      vertex 30.1222 52.6335 108.518
      vertex 31.8941 51.6105 107.495
      vertex 56.7007 37.2885 117.958
    endloop
  endfacet
  facet normal 0 -1 0
    outer loop
      vertex 31.8942 51.6105 106.472
      vertex 31.8941 51.6105 107.495
      vertex 31.8941 51.6105 106.472
    endloop
  endfacet
  facet normal -0.500019 -0.866015 -4.88777e-05
    outer loop
      vertex 31.8941 51.6105 107.495
      vertex 31.8942 51.6105 106.472
      vertex 33.666 50.5875 106.472
    endloop
  endfacet
  facet normal -0.499997 -0.866027 2.7323e-15
    outer loop
      vertex 31.8941 51.6105 107.495
      vertex 33.666 50.5875 106.472
      vertex 56.7007 37.2885 117.958
    endloop
  endfacet
  facet normal 0 -1 0
    outer loop
      vertex 33.6661 50.5875 105.449
      vertex 33.666 50.5875 106.472
      vertex 33.666 50.5875 105.449
    endloop
  endfacet
  facet normal -0.500013 -0.866018 -4.88771e-05
    outer loop
      vertex 33.666 50.5875 106.472
      vertex 33.6661 50.5875 105.449
      vertex 35.0342 49.7976 105.449
    endloop
  endfacet
  facet normal -0.499993 -0.86603 -1.28378e-05
    outer loop
      vertex 33.666 50.5875 106.472
      vertex 35.0342 49.7976 105.449
      vertex 56.7007 37.2885 117.958
    endloop
  endfacet
  facet normal 0.5 -0.866025 0
    outer loop
      vertex 0 0 0
      vertex 3.71594 2.1454 53.76
      vertex 0 0 53.76
    endloop
  endfacet
  facet normal 0.500002 -0.866025 -1.26038e-07
    outer loop
      vertex 3.71594 2.1454 53.76
      vertex 0 0 0
      vertex 5.11266 2.9518 53.76
    endloop
  endfacet
  facet normal 0.5 -0.866025 4.41848e-08
    outer loop
      vertex 5.11266 2.9518 53.76
      vertex 0 0 0
      vertex 6.97496 4.027 53.76
    endloop
  endfacet
  facet normal 0.5 -0.866025 0
    outer loop
      vertex 6.97496 4.027 53.76
      vertex 58.3571 33.6925 45.2267
      vertex 58.3571 33.6925 53.76
    endloop
  endfacet
  facet normal 0.499998 -0.866027 0
    outer loop
      vertex 58.3571 33.6925 53.76
      vertex 58.3571 33.6925 45.2267
      vertex 62.0767 35.84 53.76
    endloop
  endfacet
  facet normal 0.5 -0.866025 0
    outer loop
      vertex 6.97496 4.027 53.76
      vertex 58.3571 33.6925 40.96
      vertex 58.3571 33.6925 45.2267
    endloop
  endfacet
  facet normal 0.5 -0.866025 6.1317e-08
    outer loop
      vertex 6.97496 4.027 53.76
      vertex 0 0 0
      vertex 58.3571 33.6925 40.96
    endloop
  endfacet
  facet normal 0.5 -0.866025 2.55704e-07
    outer loop
      vertex 62.0767 35.84 0
      vertex 58.3571 33.6925 40.96
      vertex 0 0 0
    endloop
  endfacet
  facet normal 0.499998 -0.866027 0
    outer loop
      vertex 58.3571 33.6925 40.96
      vertex 62.0767 35.84 0
      vertex 62.0767 35.84 40.96
    endloop
  endfacet
  facet normal 0.5 -0.866025 -1.01407e-06
    outer loop
      vertex 58.3571 33.6925 53.76
      vertex 55.0981 31.8109 66.56
      vertex 6.97496 4.027 53.76
    endloop
  endfacet
  facet normal 0.500003 -0.866024 0
    outer loop
      vertex 55.0981 31.8109 66.56
      vertex 58.3571 33.6925 53.76
      vertex 58.3571 33.6925 58.0267
    endloop
  endfacet
  facet normal 0.500002 -0.866025 0
    outer loop
      vertex 3.71594 2.1454 53.76
      vertex 5.11266 2.9518 58.0267
      vertex 3.71594 2.1454 58.0267
    endloop
  endfacet
  facet normal 0.500002 -0.866025 0
    outer loop
      vertex 5.11266 2.9518 58.0267
      vertex 3.71594 2.1454 53.76
      vertex 5.11266 2.9518 53.76
    endloop
  endfacet
  facet normal 0.5 -0.866025 0
    outer loop
      vertex 3.71594 2.1454 58.0267
      vertex 3.71594 2.1454 66.56
      vertex 0 0 66.56
    endloop
  endfacet
  facet normal 0.500002 -0.866025 0
    outer loop
      vertex 3.71594 2.1454 66.56
      vertex 3.71594 2.1454 58.0267
      vertex 5.11266 2.9518 66.56
    endloop
  endfacet
  facet normal 0.500002 -0.866025 0
    outer loop
      vertex 5.11266 2.9518 58.0267
      vertex 5.11266 2.9518 66.56
      vertex 3.71594 2.1454 58.0267
    endloop
  endfacet
  facet normal 0.5 -0.866025 0
    outer loop
      vertex 6.97496 4.027 66.56
      vertex 6.97496 4.027 58.0267
      vertex 55.0981 31.8109 66.56
    endloop
  endfacet
  facet normal 0.5 -0.866025 0
    outer loop
      vertex 6.97496 4.027 53.76
      vertex 55.0981 31.8109 66.56
      vertex 6.97496 4.027 58.0267
    endloop
  endfacet
  facet normal 0.5 -0.866025 -1.46485e-06
    outer loop
      vertex 55.0981 31.8109 66.56
      vertex 58.3571 33.6925 58.0267
      vertex 56.9604 32.8861 66.56
    endloop
  endfacet
  facet normal 0.5 -0.866025 0
    outer loop
      vertex 3.71594 2.1454 58.0267
      vertex 0 0 66.56
      vertex 0 0 58.0267
    endloop
  endfacet
  facet normal 0.5 -0.866025 0
    outer loop
      vertex 5.11266 2.9518 66.56
      vertex 5.11266 2.9518 58.0267
      vertex 6.97496 4.027 66.56
    endloop
  endfacet
  facet normal 0.5 -0.866025 0
    outer loop
      vertex 6.97496 4.027 66.56
      vertex 5.11266 2.9518 58.0267
      vertex 6.97496 4.027 58.0267
    endloop
  endfacet
  facet normal 0.500007 -0.866021 0
    outer loop
      vertex 56.9604 32.8861 66.56
      vertex 58.3571 33.6925 58.0267
      vertex 58.3571 33.6925 66.56
    endloop
  endfacet
  facet normal 0.499998 -0.866027 0
    outer loop
      vertex 58.3571 33.6925 66.56
      vertex 58.3571 33.6925 58.0267
      vertex 62.0767 35.84 66.56
    endloop
  endfacet
  facet normal 0.499998 -0.866027 0
    outer loop
      vertex 62.0767 35.84 66.56
      vertex 58.3571 33.6925 58.0267
      vertex 62.0767 35.84 58.0267
    endloop
  endfacet
  facet normal 0.500007 -0.866021 0
    outer loop
      vertex 56.9604 32.8861 66.56
      vertex 58.3571 33.6925 70.8267
      vertex 56.9604 32.8861 70.8267
    endloop
  endfacet
  facet normal 0.500007 -0.866021 0
    outer loop
      vertex 58.3571 33.6925 70.8267
      vertex 56.9604 32.8861 66.56
      vertex 58.3571 33.6925 66.56
    endloop
  endfacet
  facet normal 0.5 -0.866025 0
    outer loop
      vertex 6.97496 4.027 66.56
      vertex 55.0981 31.8109 70.8267
      vertex 6.97496 4.027 70.8267
    endloop
  endfacet
  facet normal 0.5 -0.866025 0
    outer loop
      vertex 55.0981 31.8109 70.8267
      vertex 6.97496 4.027 66.56
      vertex 55.0981 31.8109 66.56
    endloop
  endfacet
  facet normal 0.500002 -0.866025 0
    outer loop
      vertex 3.71594 2.1454 66.56
      vertex 5.11266 2.9518 70.8267
      vertex 3.71594 2.1454 70.8267
    endloop
  endfacet
  facet normal 0.500002 -0.866025 0
    outer loop
      vertex 5.11266 2.9518 70.8267
      vertex 3.71594 2.1454 66.56
      vertex 5.11266 2.9518 66.56
    endloop
  endfacet
  facet normal 0.5 -0.866025 0
    outer loop
      vertex 3.71594 2.1454 70.8267
      vertex 3.71594 2.1454 79.36
      vertex 0 0 79.36
    endloop
  endfacet
  facet normal 0.5 -0.866025 -3.28405e-07
    outer loop
      vertex 3.71594 2.1454 79.36
      vertex 6.97496 4.027 70.8267
      vertex 58.3571 33.6925 79.36
    endloop
  endfacet
  facet normal 0.5 -0.866025 0
    outer loop
      vertex 3.71594 2.1454 70.8267
      vertex 0 0 79.36
      vertex 0 0 70.8267
    endloop
  endfacet
  facet normal 0.500002 -0.866025 0
    outer loop
      vertex 3.71594 2.1454 79.36
      vertex 3.71594 2.1454 70.8267
      vertex 5.11266 2.9518 70.8267
    endloop
  endfacet
  facet normal 0.5 -0.866025 -2.9297e-07
    outer loop
      vertex 3.71594 2.1454 79.36
      vertex 5.11266 2.9518 70.8267
      vertex 6.97496 4.027 70.8267
    endloop
  endfacet
  facet normal 0.5 -0.866025 1.62413e-06
    outer loop
      vertex 55.0981 31.8109 70.8267
      vertex 58.3571 33.6925 79.36
      vertex 6.97496 4.027 70.8267
    endloop
  endfacet
  facet normal 0.5 -0.866025 1.46485e-06
    outer loop
      vertex 56.9604 32.8861 70.8267
      vertex 58.3571 33.6925 79.36
      vertex 55.0981 31.8109 70.8267
    endloop
  endfacet
  facet normal 0.500007 -0.866021 0
    outer loop
      vertex 58.3571 33.6925 70.8267
      vertex 58.3571 33.6925 79.36
      vertex 56.9604 32.8861 70.8267
    endloop
  endfacet
  facet normal 0.499998 -0.866027 0
    outer loop
      vertex 58.3571 33.6925 79.36
      vertex 58.3571 33.6925 70.8267
      vertex 62.0767 35.84 79.36
    endloop
  endfacet
  facet normal 0.499998 -0.866027 0
    outer loop
      vertex 62.0767 35.84 79.36
      vertex 58.3571 33.6925 70.8267
      vertex 62.0767 35.84 70.8267
    endloop
  endfacet
  facet normal 0.5 -0.866025 0
    outer loop
      vertex 3.71594 2.1454 79.36
      vertex 58.3571 33.6925 83.6267
      vertex 3.71594 2.1454 83.6267
    endloop
  endfacet
  facet normal 0.5 -0.866025 0
    outer loop
      vertex 58.3571 33.6925 83.6267
      vertex 3.71594 2.1454 79.36
      vertex 58.3571 33.6925 79.36
    endloop
  endfacet
  facet normal 0.499998 -0.866027 0
    outer loop
      vertex 62.0767 35.84 53.76
      vertex 58.3571 33.6925 45.2267
      vertex 62.0767 35.84 45.2267
    endloop
  endfacet
  facet normal 0.500001 -0.866025 0
    outer loop
      vertex 0 0 83.6267
      vertex 0.0173202 0.00999985 92.16
      vertex 0 0 92.16
    endloop
  endfacet
  facet normal 0.5 -0.866025 5.43575e-08
    outer loop
      vertex 0.0173202 0.00999985 92.16
      vertex 3.71594 2.1454 83.6267
      vertex 56.6834 32.7262 92.16
    endloop
  endfacet
  facet normal 0.5 -0.866025 2.33592e-09
    outer loop
      vertex 0.0173202 0.00999985 92.16
      vertex 0 0 83.6267
      vertex 3.71594 2.1454 83.6267
    endloop
  endfacet
  facet normal 0.500005 -0.866022 -6.63806e-06
    outer loop
      vertex 62.0767 35.84 127.99
      vertex 34.3501 19.832 105.054
      vertex 56.7007 32.7362 117.958
    endloop
  endfacet
  facet normal 0.499998 -0.866027 4.97455e-06
    outer loop
      vertex 0.0173202 0.00999985 92.16
      vertex 34.3501 19.832 105.054
      vertex 62.0767 35.84 127.99
    endloop
  endfacet
  facet normal 0.5 -0.866025 -3.61906e-06
    outer loop
      vertex 34.3501 19.832 105.054
      vertex 0.0173202 0.00999985 92.16
      vertex 56.6834 32.7262 92.16
    endloop
  endfacet
  facet normal 0.499996 -0.866028 0
    outer loop
      vertex 62.0767 35.84 83.6267
      vertex 56.7007 32.7362 117.958
      vertex 56.7007 32.7362 92.16
    endloop
  endfacet
  facet normal 0.5 -0.866025 1.16709e-06
    outer loop
      vertex 58.3571 33.6925 83.6267
      vertex 56.6834 32.7262 92.16
      vertex 3.71594 2.1454 83.6267
    endloop
  endfacet
  facet normal 0.500444 -0.865769 0.000117351
    outer loop
      vertex 56.6834 32.7262 92.16
      vertex 58.3571 33.6925 83.6267
      vertex 56.7007 32.7362 92.16
    endloop
  endfacet
  facet normal 0.499998 -0.866027 1.78769e-06
    outer loop
      vertex 62.0767 35.84 83.6267
      vertex 56.7007 32.7362 92.16
      vertex 58.3571 33.6925 83.6267
    endloop
  endfacet
  facet normal 0.499996 -0.866028 0
    outer loop
      vertex 56.7007 32.7362 117.958
      vertex 62.0767 35.84 83.6267
      vertex 62.0767 35.84 127.99
    endloop
  endfacet
  facet normal 0.500004 0.866023 0
    outer loop
      vertex 62.0767 35.84 40.96
      vertex 62.0767 35.84 0
      vertex 58.3608 37.9854 40.96
    endloop
  endfacet
  facet normal 0.500004 0.866023 -0
    outer loop
      vertex 58.3608 37.9854 45.2267
      vertex 58.3608 37.9854 53.76
      vertex 62.0767 35.84 53.76
    endloop
  endfacet
  facet normal 0.5 0.866026 0
    outer loop
      vertex 58.3608 37.9854 53.76
      vertex 58.3608 37.9854 45.2267
      vertex 3.71959 69.5325 53.76
    endloop
  endfacet
  facet normal 0.500004 0.866023 0
    outer loop
      vertex 58.3608 37.9854 45.2267
      vertex 62.0767 35.84 53.76
      vertex 62.0767 35.84 45.2267
    endloop
  endfacet
  facet normal 0.5 0.866026 -0
    outer loop
      vertex 58.3608 37.9854 40.96
      vertex 3.71959 69.5325 53.76
      vertex 58.3608 37.9854 45.2267
    endloop
  endfacet
  facet normal 0.5 0.866026 -8.10039e-08
    outer loop
      vertex 0 71.68 0
      vertex 3.71959 69.5325 53.76
      vertex 58.3608 37.9854 40.96
    endloop
  endfacet
  facet normal 0.5 0.866025 -5.09596e-07
    outer loop
      vertex 0 71.68 0
      vertex 58.3608 37.9854 40.96
      vertex 62.0767 35.84 0
    endloop
  endfacet
  facet normal 0.499999 0.866026 0
    outer loop
      vertex 3.71959 69.5325 53.76
      vertex 0 71.68 0
      vertex 0 71.68 53.76
    endloop
  endfacet
  facet normal 0.5 0.866026 -5.51965e-08
    outer loop
      vertex 3.71959 69.5325 53.76
      vertex 6.97862 67.6509 66.56
      vertex 58.3608 37.9854 53.76
    endloop
  endfacet
  facet normal 0.5 0.866026 0
    outer loop
      vertex 6.97862 67.6509 66.56
      vertex 3.71959 69.5325 53.76
      vertex 3.71959 69.5325 58.0267
    endloop
  endfacet
  facet normal 0.500004 0.866023 -0
    outer loop
      vertex 58.3608 37.9854 58.0267
      vertex 58.3608 37.9854 66.56
      vertex 62.0767 35.84 66.56
    endloop
  endfacet
  facet normal 0.49998 0.866037 0
    outer loop
      vertex 58.3608 37.9854 66.56
      vertex 58.3608 37.9854 58.0267
      vertex 56.964 38.7918 66.56
    endloop
  endfacet
  facet normal 0.5 0.866025 4.39455e-06
    outer loop
      vertex 56.964 38.7918 66.56
      vertex 58.3608 37.9854 58.0267
      vertex 55.1017 39.867 66.56
    endloop
  endfacet
  facet normal 0.499992 0.86603 -0
    outer loop
      vertex 58.3608 37.9854 53.76
      vertex 55.1017 39.867 66.56
      vertex 58.3608 37.9854 58.0267
    endloop
  endfacet
  facet normal 0.5 0.866025 2.98223e-06
    outer loop
      vertex 55.1017 39.867 66.56
      vertex 58.3608 37.9854 53.76
      vertex 6.97862 67.6509 66.56
    endloop
  endfacet
  facet normal 0.499998 0.866026 7.32422e-07
    outer loop
      vertex 6.97862 67.6509 66.56
      vertex 3.71959 69.5325 58.0267
      vertex 5.11631 68.7261 66.56
    endloop
  endfacet
  facet normal 0.500004 0.866023 0
    outer loop
      vertex 58.3608 37.9854 58.0267
      vertex 62.0767 35.84 66.56
      vertex 62.0767 35.84 58.0267
    endloop
  endfacet
  facet normal 0.500002 0.866025 0
    outer loop
      vertex 5.11631 68.7261 66.56
      vertex 3.71959 69.5325 58.0267
      vertex 3.71959 69.5325 66.56
    endloop
  endfacet
  facet normal 0.499999 0.866026 0
    outer loop
      vertex 3.71959 69.5325 66.56
      vertex 3.71959 69.5325 58.0267
      vertex 0 71.68 66.56
    endloop
  endfacet
  facet normal 0.499999 0.866026 0
    outer loop
      vertex 0 71.68 66.56
      vertex 3.71959 69.5325 58.0267
      vertex 0 71.68 58.0267
    endloop
  endfacet
  facet normal 0.500002 0.866025 -0
    outer loop
      vertex 5.11631 68.7261 66.56
      vertex 3.71959 69.5325 70.8267
      vertex 5.11631 68.7261 70.8267
    endloop
  endfacet
  facet normal 0.500002 0.866025 0
    outer loop
      vertex 3.71959 69.5325 70.8267
      vertex 5.11631 68.7261 66.56
      vertex 3.71959 69.5325 66.56
    endloop
  endfacet
  facet normal 0.5 0.866025 -0
    outer loop
      vertex 55.1017 39.867 66.56
      vertex 6.97862 67.6509 70.8267
      vertex 55.1017 39.867 70.8267
    endloop
  endfacet
  facet normal 0.5 0.866025 0
    outer loop
      vertex 6.97862 67.6509 70.8267
      vertex 55.1017 39.867 66.56
      vertex 6.97862 67.6509 66.56
    endloop
  endfacet
  facet normal 0.49998 0.866037 -0
    outer loop
      vertex 58.3608 37.9854 66.56
      vertex 56.964 38.7918 70.8267
      vertex 58.3608 37.9854 70.8267
    endloop
  endfacet
  facet normal 0.49998 0.866037 0
    outer loop
      vertex 56.964 38.7918 70.8267
      vertex 58.3608 37.9854 66.56
      vertex 56.964 38.7918 66.56
    endloop
  endfacet
  facet normal 0.500004 0.866023 -0
    outer loop
      vertex 58.3608 37.9854 70.8267
      vertex 58.3608 37.9854 79.36
      vertex 62.0767 35.84 79.36
    endloop
  endfacet
  facet normal 0.5 0.866026 -4.18962e-06
    outer loop
      vertex 58.3608 37.9854 79.36
      vertex 55.1017 39.867 70.8267
      vertex 6.97862 67.6509 79.36
    endloop
  endfacet
  facet normal 0.5 0.866025 -0
    outer loop
      vertex 6.97862 67.6509 70.8267
      vertex 6.97862 67.6509 79.36
      vertex 55.1017 39.867 70.8267
    endloop
  endfacet
  facet normal 0.499998 0.866026 0
    outer loop
      vertex 6.97862 67.6509 79.36
      vertex 6.97862 67.6509 70.8267
      vertex 5.11631 68.7261 79.36
    endloop
  endfacet
  facet normal 0.500004 0.866023 0
    outer loop
      vertex 58.3608 37.9854 70.8267
      vertex 62.0767 35.84 79.36
      vertex 62.0767 35.84 70.8267
    endloop
  endfacet
  facet normal 0.49998 0.866037 0
    outer loop
      vertex 58.3608 37.9854 79.36
      vertex 58.3608 37.9854 70.8267
      vertex 56.964 38.7918 70.8267
    endloop
  endfacet
  facet normal 0.5 0.866025 -4.39455e-06
    outer loop
      vertex 58.3608 37.9854 79.36
      vertex 56.964 38.7918 70.8267
      vertex 55.1017 39.867 70.8267
    endloop
  endfacet
  facet normal 0.499998 0.866026 -0
    outer loop
      vertex 5.11631 68.7261 70.8267
      vertex 5.11631 68.7261 79.36
      vertex 6.97862 67.6509 70.8267
    endloop
  endfacet
  facet normal 0.500002 0.866025 0
    outer loop
      vertex 5.11631 68.7261 79.36
      vertex 5.11631 68.7261 70.8267
      vertex 3.71959 69.5325 79.36
    endloop
  endfacet
  facet normal 0.500002 0.866025 -0
    outer loop
      vertex 3.71959 69.5325 70.8267
      vertex 3.71959 69.5325 79.36
      vertex 5.11631 68.7261 70.8267
    endloop
  endfacet
  facet normal 0.499999 0.866026 0
    outer loop
      vertex 3.71959 69.5325 79.36
      vertex 3.71959 69.5325 70.8267
      vertex 0 71.68 79.36
    endloop
  endfacet
  facet normal 0.499999 0.866026 0
    outer loop
      vertex 0 71.68 79.36
      vertex 3.71959 69.5325 70.8267
      vertex 0 71.68 70.8267
    endloop
  endfacet
  facet normal 0.500002 0.866025 -0
    outer loop
      vertex 5.11631 68.7261 79.36
      vertex 3.71959 69.5325 83.6267
      vertex 5.11631 68.7261 83.6267
    endloop
  endfacet
  facet normal 0.500002 0.866025 0
    outer loop
      vertex 3.71959 69.5325 83.6267
      vertex 5.11631 68.7261 79.36
      vertex 3.71959 69.5325 79.36
    endloop
  endfacet
  facet normal 0.5 0.866026 -0
    outer loop
      vertex 58.3608 37.9854 79.36
      vertex 6.97862 67.6509 83.6267
      vertex 58.3608 37.9854 83.6267
    endloop
  endfacet
  facet normal 0.5 0.866026 0
    outer loop
      vertex 6.97862 67.6509 83.6267
      vertex 58.3608 37.9854 79.36
      vertex 6.97862 67.6509 79.36
    endloop
  endfacet
  facet normal 0.499996 0.866028 -0
    outer loop
      vertex 62.0767 35.84 83.6267
      vertex 56.7007 38.9438 117.958
      vertex 62.0767 35.84 127.99
    endloop
  endfacet
  facet normal 0.500444 0.865769 0.00012128
    outer loop
      vertex 58.3608 37.9854 83.6267
      vertex 56.6834 38.9538 92.16
      vertex 56.7007 38.9438 92.16
    endloop
  endfacet
  facet normal 0.5 0.866025 1.13762e-06
    outer loop
      vertex 56.6834 38.9538 92.16
      vertex 6.97862 67.6509 83.6267
      vertex 0.0173202 71.67 92.16
    endloop
  endfacet
  facet normal 0.499996 0.866028 0
    outer loop
      vertex 56.7007 38.9438 117.958
      vertex 62.0767 35.84 83.6267
      vertex 56.7007 38.9438 92.16
    endloop
  endfacet
  facet normal 0.500004 0.866023 7.10049e-06
    outer loop
      vertex 58.3608 37.9854 83.6267
      vertex 56.7007 38.9438 92.16
      vertex 62.0767 35.84 83.6267
    endloop
  endfacet
  facet normal 0.5 0.866026 4.75338e-06
    outer loop
      vertex 56.6834 38.9538 92.16
      vertex 58.3608 37.9854 83.6267
      vertex 6.97862 67.6509 83.6267
    endloop
  endfacet
  facet normal 0.499998 0.866026 -1.12131e-06
    outer loop
      vertex 5.11631 68.7261 83.6267
      vertex 0.0173202 71.67 92.16
      vertex 6.97862 67.6509 83.6267
    endloop
  endfacet
  facet normal 0.500002 0.866025 1.55254e-06
    outer loop
      vertex 3.71959 69.5325 83.6267
      vertex 0.0173202 71.67 92.16
      vertex 5.11631 68.7261 83.6267
    endloop
  endfacet
  facet normal 0.499999 0.866026 2.10228e-08
    outer loop
      vertex 0 71.68 83.6267
      vertex 0.0173202 71.67 92.16
      vertex 3.71959 69.5325 83.6267
    endloop
  endfacet
  facet normal 0.500007 0.866022 0
    outer loop
      vertex 0.0173202 71.67 92.16
      vertex 0 71.68 83.6267
      vertex 0 71.68 92.16
    endloop
  endfacet
  facet normal 0.500001 0.866025 -3.63145e-06
    outer loop
      vertex 34.3501 51.8479 105.054
      vertex 62.0767 35.84 127.99
      vertex 56.7007 38.9438 117.958
    endloop
  endfacet
  facet normal 0.500003 0.866024 -7.51736e-06
    outer loop
      vertex 34.3501 51.8479 105.054
      vertex 0.0173202 71.67 92.16
      vertex 62.0767 35.84 127.99
    endloop
  endfacet
  facet normal 0.5 0.866025 3.09347e-06
    outer loop
      vertex 0.0173202 71.67 92.16
      vertex 34.3501 51.8479 105.054
      vertex 56.6834 38.9538 92.16
    endloop
  endfacet
  facet normal -0.499914 0.000207547 0.866075
    outer loop
      vertex 62.0767 35.84 127.99
      vertex 1.43359 69.1969 92.9777
      vertex 59.2095 35.84 126.335
    endloop
  endfacet
  facet normal -0.500007 0 0.866021
    outer loop
      vertex 1.43359 69.1969 92.9777
      vertex 0.0173202 71.67 92.16
      vertex 1.43359 2.48306 92.9777
    endloop
  endfacet
  facet normal -0.499996 8.49663e-06 0.866028
    outer loop
      vertex 0.0173202 71.67 92.16
      vertex 1.43359 69.1969 92.9777
      vertex 62.0767 35.84 127.99
    endloop
  endfacet
  facet normal -0.499914 -0.000207547 0.866075
    outer loop
      vertex 1.43359 2.48306 92.9777
      vertex 62.0767 35.84 127.99
      vertex 59.2095 35.84 126.335
    endloop
  endfacet
  facet normal -0.499996 -8.49684e-06 0.866028
    outer loop
      vertex 1.43359 2.48306 92.9777
      vertex 0.0173202 0.00999985 92.16
      vertex 62.0767 35.84 127.99
    endloop
  endfacet
  facet normal -0.500007 0 0.866021
    outer loop
      vertex 0.0173202 0.00999985 92.16
      vertex 1.43359 2.48306 92.9777
      vertex 0.0173202 71.67 92.16
    endloop
  endfacet
  facet normal 0.499995 0 -0.866028
    outer loop
      vertex 35.0342 21.8824 105.449
      vertex 56.7007 32.7362 117.958
      vertex 35.0342 20.2385 105.449
    endloop
  endfacet
  facet normal 0.498741 0.00289391 -0.866746
    outer loop
      vertex 34.3501 19.832 105.054
      vertex 35.0342 20.2385 105.449
      vertex 56.7007 32.7362 117.958
    endloop
  endfacet
  facet normal 0.500033 0 -0.866006
    outer loop
      vertex 35.0342 20.2385 105.449
      vertex 34.3501 19.832 105.054
      vertex 34.3501 19.8436 105.054
    endloop
  endfacet
  facet normal 0.499995 0 -0.866028
    outer loop
      vertex 56.7007 32.7362 117.958
      vertex 35.0342 21.8824 105.449
      vertex 56.7007 34.3915 117.958
    endloop
  endfacet
  facet normal 0.499995 0 -0.866028
    outer loop
      vertex 35.0342 49.7976 105.449
      vertex 56.7007 38.9438 117.958
      vertex 56.7007 37.2885 117.958
    endloop
  endfacet
  facet normal 0.499995 0 -0.866028
    outer loop
      vertex 35.0342 51.4414 105.449
      vertex 56.7007 38.9438 117.958
      vertex 35.0342 49.7976 105.449
    endloop
  endfacet
  facet normal 0.500033 0 -0.866006
    outer loop
      vertex 34.3501 51.8479 105.054
      vertex 35.0342 51.4414 105.449
      vertex 34.3501 51.8364 105.054
    endloop
  endfacet
  facet normal 0.498741 -0.00289314 -0.866746
    outer loop
      vertex 35.0342 51.4414 105.449
      vertex 34.3501 51.8479 105.054
      vertex 56.7007 38.9438 117.958
    endloop
  endfacet
  facet normal 0 0 1
    outer loop
      vertex 35.438 22.1155 104.426
      vertex 35.4379 22.1155 104.426
      vertex 35.438 20.4717 104.426
    endloop
  endfacet
  facet normal 0 0 1
    outer loop
      vertex 37.2099 23.1385 103.403
      vertex 37.2098 23.1385 103.403
      vertex 37.2099 21.4947 103.403
    endloop
  endfacet
  facet normal 0 0 1
    outer loop
      vertex 38.9818 24.1615 102.38
      vertex 38.9817 24.1615 102.38
      vertex 38.9818 22.5177 102.38
    endloop
  endfacet
  facet normal 0 0 1
    outer loop
      vertex 40.7537 25.1845 101.357
      vertex 40.7536 25.1845 101.357
      vertex 40.7537 23.5407 101.357
    endloop
  endfacet
  facet normal 0.499993 0 0.866029
    outer loop
      vertex 54.9288 31.7247 93.173
      vertex 56.6834 32.7262 92.16
      vertex 56.6834 32.7377 92.16
    endloop
  endfacet
  facet normal 0.499609 0.000896065 0.86625
    outer loop
      vertex 53.1569 30.7017 94.196
      vertex 56.6834 32.7262 92.16
      vertex 54.9288 31.7247 93.173
    endloop
  endfacet
  facet normal 0.499609 0.000896065 0.86625
    outer loop
      vertex 51.385 29.6787 95.219
      vertex 56.6834 32.7262 92.16
      vertex 53.1569 30.7017 94.196
    endloop
  endfacet
  facet normal 0.499609 0.000896065 0.86625
    outer loop
      vertex 49.6131 28.6557 96.242
      vertex 56.6834 32.7262 92.16
      vertex 51.385 29.6787 95.219
    endloop
  endfacet
  facet normal 0.499609 0.000896065 0.86625
    outer loop
      vertex 49.6131 28.6557 96.242
      vertex 47.8412 27.6327 97.265
      vertex 56.6834 32.7262 92.16
    endloop
  endfacet
  facet normal 0.499609 0.000896065 0.86625
    outer loop
      vertex 47.8412 27.6327 97.265
      vertex 46.0693 26.6097 98.288
      vertex 56.6834 32.7262 92.16
    endloop
  endfacet
  facet normal 0.499609 0.000896065 0.86625
    outer loop
      vertex 44.2974 25.5867 99.311
      vertex 56.6834 32.7262 92.16
      vertex 46.0693 26.6097 98.288
    endloop
  endfacet
  facet normal 0.499609 0.000896065 0.86625
    outer loop
      vertex 44.2974 25.5867 99.311
      vertex 42.5255 24.5637 100.334
      vertex 56.6834 32.7262 92.16
    endloop
  endfacet
  facet normal 0.484687 0.0345454 0.874005
    outer loop
      vertex 40.7537 23.5407 101.357
      vertex 56.6834 32.7262 92.16
      vertex 42.5255 24.5637 100.334
    endloop
  endfacet
  facet normal 0 0 1
    outer loop
      vertex 40.7536 23.5407 101.357
      vertex 40.7537 23.5407 101.357
      vertex 40.7536 25.1845 101.357
    endloop
  endfacet
  facet normal 0 -0.707549 -0.706664
    outer loop
      vertex 40.7536 23.5407 101.357
      vertex 56.6834 32.7262 92.16
      vertex 40.7537 23.5407 101.357
    endloop
  endfacet
  facet normal 0.482833 0.0386118 0.874861
    outer loop
      vertex 38.9818 22.5177 102.38
      vertex 56.6834 32.7262 92.16
      vertex 40.7536 23.5407 101.357
    endloop
  endfacet
  facet normal 0 0 1
    outer loop
      vertex 38.9817 22.5177 102.38
      vertex 38.9818 22.5177 102.38
      vertex 38.9817 24.1615 102.38
    endloop
  endfacet
  facet normal 0 -0.707505 -0.706709
    outer loop
      vertex 38.9817 22.5177 102.38
      vertex 56.6834 32.7262 92.16
      vertex 38.9818 22.5177 102.38
    endloop
  endfacet
  facet normal 0.480983 0.0426464 0.875692
    outer loop
      vertex 37.2099 21.4947 103.403
      vertex 56.6834 32.7262 92.16
      vertex 38.9817 22.5177 102.38
    endloop
  endfacet
  facet normal 0 0 1
    outer loop
      vertex 37.2098 21.4947 103.403
      vertex 37.2099 21.4947 103.403
      vertex 37.2098 23.1385 103.403
    endloop
  endfacet
  facet normal 0 0.707107 0.707107
    outer loop
      vertex 35.438 20.4717 104.426
      vertex 37.2099 21.4947 103.403
      vertex 37.2098 21.4947 103.403
    endloop
  endfacet
  facet normal 0.501493 -0.00346136 0.865155
    outer loop
      vertex 35.438 20.4717 104.426
      vertex 56.6834 32.7262 92.16
      vertex 37.2099 21.4947 103.403
    endloop
  endfacet
  facet normal 0 0 1
    outer loop
      vertex 35.4379 20.4717 104.426
      vertex 35.438 20.4717 104.426
      vertex 35.4379 22.1155 104.426
    endloop
  endfacet
  facet normal 0.499975 -0 0.86604
    outer loop
      vertex 34.3501 19.832 105.054
      vertex 35.4379 20.4717 104.426
      vertex 34.3501 19.8436 105.054
    endloop
  endfacet
  facet normal -0 0.700551 0.713602
    outer loop
      vertex 35.4379 20.4717 104.426
      vertex 34.3501 19.832 105.054
      vertex 35.438 20.4717 104.426
    endloop
  endfacet
  facet normal 0.502972 -0.00690788 0.864275
    outer loop
      vertex 35.438 20.4717 104.426
      vertex 34.3501 19.832 105.054
      vertex 56.6834 32.7262 92.16
    endloop
  endfacet
  facet normal 0.499993 0 0.866029
    outer loop
      vertex 56.6834 38.9538 92.16
      vertex 54.9288 39.9553 93.173
      vertex 56.6834 38.9423 92.16
    endloop
  endfacet
  facet normal 0.499609 -0.000896065 0.86625
    outer loop
      vertex 56.6834 38.9538 92.16
      vertex 53.1569 40.9783 94.196
      vertex 54.9288 39.9553 93.173
    endloop
  endfacet
  facet normal 0.499609 -0.000896065 0.86625
    outer loop
      vertex 56.6834 38.9538 92.16
      vertex 51.385 42.0013 95.219
      vertex 53.1569 40.9783 94.196
    endloop
  endfacet
  facet normal 0.499609 -0.000896065 0.86625
    outer loop
      vertex 56.6834 38.9538 92.16
      vertex 49.6131 43.0243 96.242
      vertex 51.385 42.0013 95.219
    endloop
  endfacet
  facet normal 0.499609 -0.000896065 0.86625
    outer loop
      vertex 56.6834 38.9538 92.16
      vertex 47.8412 44.0473 97.265
      vertex 49.6131 43.0243 96.242
    endloop
  endfacet
  facet normal 0.499609 -0.000896065 0.86625
    outer loop
      vertex 46.0693 45.0703 98.288
      vertex 47.8412 44.0473 97.265
      vertex 56.6834 38.9538 92.16
    endloop
  endfacet
  facet normal 0.499609 -0.000896065 0.86625
    outer loop
      vertex 44.2974 46.0933 99.311
      vertex 46.0693 45.0703 98.288
      vertex 56.6834 38.9538 92.16
    endloop
  endfacet
  facet normal 0.499609 -0.000896065 0.86625
    outer loop
      vertex 42.5255 47.1163 100.334
      vertex 44.2974 46.0933 99.311
      vertex 56.6834 38.9538 92.16
    endloop
  endfacet
  facet normal 0.499609 -0.000896065 0.86625
    outer loop
      vertex 40.7536 48.1393 101.357
      vertex 42.5255 47.1163 100.334
      vertex 56.6834 38.9538 92.16
    endloop
  endfacet
  facet normal 0 0 1
    outer loop
      vertex 40.7536 46.4955 101.357
      vertex 40.7537 48.1393 101.357
      vertex 40.7536 48.1393 101.357
    endloop
  endfacet
  facet normal 0 0.707107 -0.707107
    outer loop
      vertex 42.5255 47.1163 100.334
      vertex 40.7536 48.1393 101.357
      vertex 40.7537 48.1393 101.357
    endloop
  endfacet
  facet normal 0.482833 -0.0386118 0.874861
    outer loop
      vertex 56.6834 38.9538 92.16
      vertex 38.9818 49.1623 102.38
      vertex 40.7536 48.1393 101.357
    endloop
  endfacet
  facet normal 0 0 1
    outer loop
      vertex 38.9817 47.5185 102.38
      vertex 38.9818 49.1623 102.38
      vertex 38.9817 49.1623 102.38
    endloop
  endfacet
  facet normal 0 -0.707107 0.707107
    outer loop
      vertex 38.9818 49.1623 102.38
      vertex 37.2099 50.1853 103.403
      vertex 38.9817 49.1623 102.38
    endloop
  endfacet
  facet normal 0.501493 0.00346136 0.865155
    outer loop
      vertex 56.6834 38.9538 92.16
      vertex 37.2099 50.1853 103.403
      vertex 38.9818 49.1623 102.38
    endloop
  endfacet
  facet normal 0 0 1
    outer loop
      vertex 37.2098 48.5415 103.403
      vertex 37.2099 50.1853 103.403
      vertex 37.2098 50.1853 103.403
    endloop
  endfacet
  facet normal 0 -0.707107 0.707107
    outer loop
      vertex 37.2099 50.1853 103.403
      vertex 35.438 51.2083 104.426
      vertex 37.2098 50.1853 103.403
    endloop
  endfacet
  facet normal 0.501493 0.00346136 0.865155
    outer loop
      vertex 56.6834 38.9538 92.16
      vertex 35.438 51.2083 104.426
      vertex 37.2099 50.1853 103.403
    endloop
  endfacet
  facet normal 0 0 1
    outer loop
      vertex 35.4379 49.5645 104.426
      vertex 35.438 51.2083 104.426
      vertex 35.4379 51.2083 104.426
    endloop
  endfacet
  facet normal 0.502997 0.00696489 0.86426
    outer loop
      vertex 34.3501 51.8479 105.054
      vertex 35.438 51.2083 104.426
      vertex 56.6834 38.9538 92.16
    endloop
  endfacet
  facet normal 0 -0.700607 0.713548
    outer loop
      vertex 34.3501 51.8479 105.054
      vertex 35.4379 51.2083 104.426
      vertex 35.438 51.2083 104.426
    endloop
  endfacet
  facet normal 0.499975 0 0.86604
    outer loop
      vertex 35.4379 51.2083 104.426
      vertex 34.3501 51.8479 105.054
      vertex 34.3501 51.8364 105.054
    endloop
  endfacet
  facet normal 0 0 1
    outer loop
      vertex 40.7537 48.1393 101.357
      vertex 40.7536 46.4955 101.357
      vertex 40.7537 46.4955 101.357
    endloop
  endfacet
  facet normal 0 0 1
    outer loop
      vertex 38.9818 49.1623 102.38
      vertex 38.9817 47.5185 102.38
      vertex 38.9818 47.5185 102.38
    endloop
  endfacet
  facet normal 0 0 1
    outer loop
      vertex 37.2099 50.1853 103.403
      vertex 37.2098 48.5415 103.403
      vertex 37.2099 48.5415 103.403
    endloop
  endfacet
  facet normal 0 0 1
    outer loop
      vertex 35.438 51.2083 104.426
      vertex 35.4379 49.5645 104.426
      vertex 35.438 49.5645 104.426
    endloop
  endfacet
  facet normal -0 0 1
    outer loop
      vertex 54.9288 33.3685 93.173
      vertex 56.7007 32.7477 93.173
      vertex 56.7007 34.3915 93.173
    endloop
  endfacet
  facet normal 0 0 1
    outer loop
      vertex 56.7007 32.7477 93.173
      vertex 54.9288 33.3685 93.173
      vertex 54.9288 31.7247 93.173
    endloop
  endfacet
  facet normal 0 0 1
    outer loop
      vertex 54.9288 38.3115 93.173
      vertex 56.7007 38.9323 93.173
      vertex 54.9288 39.9553 93.173
    endloop
  endfacet
  facet normal 0 0 1
    outer loop
      vertex 56.7007 38.9323 93.173
      vertex 54.9288 38.3115 93.173
      vertex 56.7007 37.2885 93.173
    endloop
  endfacet
  facet normal 1 -0 0
    outer loop
      vertex 54.9288 31.7247 94.196
      vertex 54.9288 33.3685 93.173
      vertex 54.9288 33.3685 94.196
    endloop
  endfacet
  facet normal 1 0 0
    outer loop
      vertex 54.9288 33.3685 93.173
      vertex 54.9288 31.7247 94.196
      vertex 54.9288 31.7247 93.173
    endloop
  endfacet
  facet normal 1 -0 0
    outer loop
      vertex 54.9288 38.3115 94.196
      vertex 54.9288 39.9553 93.173
      vertex 54.9288 39.9553 94.196
    endloop
  endfacet
  facet normal 1 0 0
    outer loop
      vertex 54.9288 39.9553 93.173
      vertex 54.9288 38.3115 94.196
      vertex 54.9288 38.3115 93.173
    endloop
  endfacet
  facet normal -0 0 1
    outer loop
      vertex 53.1569 32.3455 94.196
      vertex 54.9288 31.7247 94.196
      vertex 54.9288 33.3685 94.196
    endloop
  endfacet
  facet normal 0 0 1
    outer loop
      vertex 54.9288 31.7247 94.196
      vertex 53.1569 32.3455 94.196
      vertex 53.1569 30.7017 94.196
    endloop
  endfacet
  facet normal 0 0 1
    outer loop
      vertex 53.1569 39.3345 94.196
      vertex 54.9288 39.9553 94.196
      vertex 53.1569 40.9783 94.196
    endloop
  endfacet
  facet normal 0 0 1
    outer loop
      vertex 54.9288 39.9553 94.196
      vertex 53.1569 39.3345 94.196
      vertex 54.9288 38.3115 94.196
    endloop
  endfacet
  facet normal 1 -0 0
    outer loop
      vertex 53.1569 30.7017 95.219
      vertex 53.1569 32.3455 94.196
      vertex 53.1569 32.3455 95.219
    endloop
  endfacet
  facet normal 1 0 0
    outer loop
      vertex 53.1569 32.3455 94.196
      vertex 53.1569 30.7017 95.219
      vertex 53.1569 30.7017 94.196
    endloop
  endfacet
  facet normal 1 -0 0
    outer loop
      vertex 53.1569 39.3345 95.219
      vertex 53.1569 40.9783 94.196
      vertex 53.1569 40.9783 95.219
    endloop
  endfacet
  facet normal 1 0 0
    outer loop
      vertex 53.1569 40.9783 94.196
      vertex 53.1569 39.3345 95.219
      vertex 53.1569 39.3345 94.196
    endloop
  endfacet
  facet normal -0 0 1
    outer loop
      vertex 51.385 31.3225 95.219
      vertex 53.1569 30.7017 95.219
      vertex 53.1569 32.3455 95.219
    endloop
  endfacet
  facet normal 0 0 1
    outer loop
      vertex 53.1569 30.7017 95.219
      vertex 51.385 31.3225 95.219
      vertex 51.385 29.6787 95.219
    endloop
  endfacet
  facet normal 0 0 1
    outer loop
      vertex 51.385 40.3575 95.219
      vertex 53.1569 40.9783 95.219
      vertex 51.385 42.0013 95.219
    endloop
  endfacet
  facet normal 0 0 1
    outer loop
      vertex 53.1569 40.9783 95.219
      vertex 51.385 40.3575 95.219
      vertex 53.1569 39.3345 95.219
    endloop
  endfacet
  facet normal 1 -0 0
    outer loop
      vertex 51.385 29.6787 96.242
      vertex 51.385 31.3225 95.219
      vertex 51.385 31.3225 96.242
    endloop
  endfacet
  facet normal 1 0 0
    outer loop
      vertex 51.385 31.3225 95.219
      vertex 51.385 29.6787 96.242
      vertex 51.385 29.6787 95.219
    endloop
  endfacet
  facet normal 1 -0 0
    outer loop
      vertex 51.385 40.3575 96.242
      vertex 51.385 42.0013 95.219
      vertex 51.385 42.0013 96.242
    endloop
  endfacet
  facet normal 1 0 0
    outer loop
      vertex 51.385 42.0013 95.219
      vertex 51.385 40.3575 96.242
      vertex 51.385 40.3575 95.219
    endloop
  endfacet
  facet normal 0 0 1
    outer loop
      vertex 51.385 42.0013 96.242
      vertex 51.375 40.3632 96.242
      vertex 51.385 40.3575 96.242
    endloop
  endfacet
  facet normal 0 0 1
    outer loop
      vertex 51.385 42.0013 96.242
      vertex 49.6131 41.3805 96.242
      vertex 51.375 40.3632 96.242
    endloop
  endfacet
  facet normal 0 0 1
    outer loop
      vertex 49.6131 41.3805 96.242
      vertex 51.385 42.0013 96.242
      vertex 49.6131 43.0243 96.242
    endloop
  endfacet
  facet normal -0 0 1
    outer loop
      vertex 51.375 31.3167 96.242
      vertex 51.385 29.6787 96.242
      vertex 51.385 31.3225 96.242
    endloop
  endfacet
  facet normal 0 0 1
    outer loop
      vertex 51.375 40.3632 96.242
      vertex 49.6131 41.3805 96.242
      vertex 51.375 31.3167 96.242
    endloop
  endfacet
  facet normal 0 0 1
    outer loop
      vertex 51.375 31.3167 96.242
      vertex 49.6131 30.2995 96.242
      vertex 51.385 29.6787 96.242
    endloop
  endfacet
  facet normal 0 0 1
    outer loop
      vertex 51.385 29.6787 96.242
      vertex 49.6131 30.2995 96.242
      vertex 49.6131 28.6557 96.242
    endloop
  endfacet
  facet normal 0 0 1
    outer loop
      vertex 49.6131 30.2995 96.242
      vertex 51.375 31.3167 96.242
      vertex 49.6131 41.3805 96.242
    endloop
  endfacet
  facet normal 1 0 0
    outer loop
      vertex 49.6131 43.0243 97.265
      vertex 49.6131 41.3805 96.242
      vertex 49.6131 43.0243 96.242
    endloop
  endfacet
  facet normal 1 0 0
    outer loop
      vertex 49.6131 43.0243 97.265
      vertex 49.6131 30.2995 96.242
      vertex 49.6131 41.3805 96.242
    endloop
  endfacet
  facet normal 1 -0 0
    outer loop
      vertex 49.6131 28.6557 97.265
      vertex 49.6131 30.2995 96.242
      vertex 49.6131 43.0243 97.265
    endloop
  endfacet
  facet normal 1 0 0
    outer loop
      vertex 49.6131 30.2995 96.242
      vertex 49.6131 28.6557 97.265
      vertex 49.6131 28.6557 96.242
    endloop
  endfacet
  facet normal 0 0 1
    outer loop
      vertex 47.8412 42.4035 97.265
      vertex 49.6131 43.0243 97.265
      vertex 47.8412 44.0473 97.265
    endloop
  endfacet
  facet normal 0 0 1
    outer loop
      vertex 49.6131 43.0243 97.265
      vertex 47.8412 42.4035 97.265
      vertex 49.6131 28.6557 97.265
    endloop
  endfacet
  facet normal -0 0 1
    outer loop
      vertex 47.8412 29.2765 97.265
      vertex 49.6131 28.6557 97.265
      vertex 47.8412 42.4035 97.265
    endloop
  endfacet
  facet normal 0 0 1
    outer loop
      vertex 49.6131 28.6557 97.265
      vertex 47.8412 29.2765 97.265
      vertex 47.8412 27.6327 97.265
    endloop
  endfacet
  facet normal 1 0 0
    outer loop
      vertex 47.8412 44.0473 98.288
      vertex 47.8412 42.4035 97.265
      vertex 47.8412 44.0473 97.265
    endloop
  endfacet
  facet normal 1 0 0
    outer loop
      vertex 47.8412 44.0473 98.288
      vertex 47.8412 29.2765 97.265
      vertex 47.8412 42.4035 97.265
    endloop
  endfacet
  facet normal 1 -0 0
    outer loop
      vertex 47.8412 27.6327 98.288
      vertex 47.8412 29.2765 97.265
      vertex 47.8412 44.0473 98.288
    endloop
  endfacet
  facet normal 1 0 0
    outer loop
      vertex 47.8412 29.2765 97.265
      vertex 47.8412 27.6327 98.288
      vertex 47.8412 27.6327 97.265
    endloop
  endfacet
  facet normal 0 0 1
    outer loop
      vertex 46.0693 43.4265 98.288
      vertex 47.8412 44.0473 98.288
      vertex 46.0693 45.0703 98.288
    endloop
  endfacet
  facet normal 0 0 1
    outer loop
      vertex 47.8412 44.0473 98.288
      vertex 46.0693 43.4265 98.288
      vertex 47.8412 27.6327 98.288
    endloop
  endfacet
  facet normal -0 0 1
    outer loop
      vertex 46.0693 28.2535 98.288
      vertex 47.8412 27.6327 98.288
      vertex 46.0693 43.4265 98.288
    endloop
  endfacet
  facet normal 0 0 1
    outer loop
      vertex 47.8412 27.6327 98.288
      vertex 46.0693 28.2535 98.288
      vertex 46.0693 26.6097 98.288
    endloop
  endfacet
  facet normal 1 0 0
    outer loop
      vertex 46.0693 45.0703 99.311
      vertex 46.0693 43.4265 98.288
      vertex 46.0693 45.0703 98.288
    endloop
  endfacet
  facet normal 1 0 0
    outer loop
      vertex 46.0693 45.0703 99.311
      vertex 46.0693 28.2535 98.288
      vertex 46.0693 43.4265 98.288
    endloop
  endfacet
  facet normal 1 -0 0
    outer loop
      vertex 46.0693 26.6097 99.311
      vertex 46.0693 28.2535 98.288
      vertex 46.0693 45.0703 99.311
    endloop
  endfacet
  facet normal 1 0 0
    outer loop
      vertex 46.0693 28.2535 98.288
      vertex 46.0693 26.6097 99.311
      vertex 46.0693 26.6097 98.288
    endloop
  endfacet
  facet normal 0 0 1
    outer loop
      vertex 44.2974 44.4495 99.311
      vertex 46.0693 45.0703 99.311
      vertex 44.2974 46.0933 99.311
    endloop
  endfacet
  facet normal 0 0 1
    outer loop
      vertex 46.0693 45.0703 99.311
      vertex 44.2974 44.4495 99.311
      vertex 46.0693 26.6097 99.311
    endloop
  endfacet
  facet normal -0 0 1
    outer loop
      vertex 44.2974 27.2305 99.311
      vertex 46.0693 26.6097 99.311
      vertex 44.2974 44.4495 99.311
    endloop
  endfacet
  facet normal 0 0 1
    outer loop
      vertex 46.0693 26.6097 99.311
      vertex 44.2974 27.2305 99.311
      vertex 44.2974 25.5867 99.311
    endloop
  endfacet
  facet normal 1 0 0
    outer loop
      vertex 44.2974 46.0933 100.334
      vertex 44.2974 44.4495 99.311
      vertex 44.2974 46.0933 99.311
    endloop
  endfacet
  facet normal 1 0 0
    outer loop
      vertex 44.2974 46.0933 100.334
      vertex 44.2974 27.2305 99.311
      vertex 44.2974 44.4495 99.311
    endloop
  endfacet
  facet normal 1 -0 0
    outer loop
      vertex 44.2974 25.5867 100.334
      vertex 44.2974 27.2305 99.311
      vertex 44.2974 46.0933 100.334
    endloop
  endfacet
  facet normal 1 0 0
    outer loop
      vertex 44.2974 27.2305 99.311
      vertex 44.2974 25.5867 100.334
      vertex 44.2974 25.5867 99.311
    endloop
  endfacet
  facet normal 0 0 1
    outer loop
      vertex 42.5255 45.4725 100.334
      vertex 44.2974 46.0933 100.334
      vertex 42.5255 47.1163 100.334
    endloop
  endfacet
  facet normal 0 0 1
    outer loop
      vertex 44.2974 46.0933 100.334
      vertex 42.5255 45.4725 100.334
      vertex 44.2974 25.5867 100.334
    endloop
  endfacet
  facet normal -0 0 1
    outer loop
      vertex 42.5255 26.2075 100.334
      vertex 44.2974 25.5867 100.334
      vertex 42.5255 45.4725 100.334
    endloop
  endfacet
  facet normal 0 0 1
    outer loop
      vertex 44.2974 25.5867 100.334
      vertex 42.5255 26.2075 100.334
      vertex 42.5255 24.5637 100.334
    endloop
  endfacet
  facet normal 1 0 0
    outer loop
      vertex 42.5255 47.1163 101.357
      vertex 42.5255 45.4725 100.334
      vertex 42.5255 47.1163 100.334
    endloop
  endfacet
  facet normal 1 0 0
    outer loop
      vertex 42.5255 47.1163 101.357
      vertex 42.5255 26.2075 100.334
      vertex 42.5255 45.4725 100.334
    endloop
  endfacet
  facet normal 1 -0 0
    outer loop
      vertex 42.5255 24.5637 101.357
      vertex 42.5255 26.2075 100.334
      vertex 42.5255 47.1163 101.357
    endloop
  endfacet
  facet normal 1 0 0
    outer loop
      vertex 42.5255 26.2075 100.334
      vertex 42.5255 24.5637 101.357
      vertex 42.5255 24.5637 100.334
    endloop
  endfacet
  facet normal -0 0 1
    outer loop
      vertex 40.7536 46.4955 101.357
      vertex 40.7537 25.1845 101.357
      vertex 40.7537 46.4955 101.357
    endloop
  endfacet
  facet normal 0 0 1
    outer loop
      vertex 40.7537 25.1845 101.357
      vertex 40.7536 46.4955 101.357
      vertex 40.7536 25.1845 101.357
    endloop
  endfacet
  facet normal 0 0 1
    outer loop
      vertex 40.7537 46.4955 101.357
      vertex 42.5255 47.1163 101.357
      vertex 40.7537 48.1393 101.357
    endloop
  endfacet
  facet normal 0 0 1
    outer loop
      vertex 42.5255 47.1163 101.357
      vertex 40.7537 46.4955 101.357
      vertex 42.5255 24.5637 101.357
    endloop
  endfacet
  facet normal -0 0 1
    outer loop
      vertex 40.7537 25.1845 101.357
      vertex 42.5255 24.5637 101.357
      vertex 40.7537 46.4955 101.357
    endloop
  endfacet
  facet normal 0 0 1
    outer loop
      vertex 42.5255 24.5637 101.357
      vertex 40.7537 25.1845 101.357
      vertex 40.7537 23.5407 101.357
    endloop
  endfacet
  facet normal 1 0 0
    outer loop
      vertex 40.7536 48.1393 102.38
      vertex 40.7536 46.4955 101.357
      vertex 40.7536 48.1393 101.357
    endloop
  endfacet
  facet normal 1 0 0
    outer loop
      vertex 40.7536 48.1393 102.38
      vertex 40.7536 25.1845 101.357
      vertex 40.7536 46.4955 101.357
    endloop
  endfacet
  facet normal 1 -0 0
    outer loop
      vertex 40.7536 23.5407 102.38
      vertex 40.7536 25.1845 101.357
      vertex 40.7536 48.1393 102.38
    endloop
  endfacet
  facet normal 1 0 0
    outer loop
      vertex 40.7536 25.1845 101.357
      vertex 40.7536 23.5407 102.38
      vertex 40.7536 23.5407 101.357
    endloop
  endfacet
  facet normal 0 0 1
    outer loop
      vertex 38.9817 24.1615 102.38
      vertex 38.9818 47.5185 102.38
      vertex 38.9817 47.5185 102.38
    endloop
  endfacet
  facet normal 0 0 1
    outer loop
      vertex 38.9818 47.5185 102.38
      vertex 38.9817 24.1615 102.38
      vertex 38.9818 24.1615 102.38
    endloop
  endfacet
  facet normal 0 0 1
    outer loop
      vertex 38.9818 47.5185 102.38
      vertex 40.7536 48.1393 102.38
      vertex 38.9818 49.1623 102.38
    endloop
  endfacet
  facet normal 0 0 1
    outer loop
      vertex 40.7536 48.1393 102.38
      vertex 38.9818 47.5185 102.38
      vertex 40.7536 23.5407 102.38
    endloop
  endfacet
  facet normal -0 0 1
    outer loop
      vertex 38.9818 24.1615 102.38
      vertex 40.7536 23.5407 102.38
      vertex 38.9818 47.5185 102.38
    endloop
  endfacet
  facet normal 0 0 1
    outer loop
      vertex 40.7536 23.5407 102.38
      vertex 38.9818 24.1615 102.38
      vertex 38.9818 22.5177 102.38
    endloop
  endfacet
  facet normal 1 0 0
    outer loop
      vertex 38.9817 49.1623 103.403
      vertex 38.9817 47.5185 102.38
      vertex 38.9817 49.1623 102.38
    endloop
  endfacet
  facet normal 1 0 0
    outer loop
      vertex 38.9817 49.1623 103.403
      vertex 38.9817 24.1615 102.38
      vertex 38.9817 47.5185 102.38
    endloop
  endfacet
  facet normal 1 -0 0
    outer loop
      vertex 38.9817 22.5177 103.403
      vertex 38.9817 24.1615 102.38
      vertex 38.9817 49.1623 103.403
    endloop
  endfacet
  facet normal 1 0 0
    outer loop
      vertex 38.9817 24.1615 102.38
      vertex 38.9817 22.5177 103.403
      vertex 38.9817 22.5177 102.38
    endloop
  endfacet
  facet normal -0 0 1
    outer loop
      vertex 37.2098 48.5415 103.403
      vertex 37.2099 23.1385 103.403
      vertex 37.2099 48.5415 103.403
    endloop
  endfacet
  facet normal 0 0 1
    outer loop
      vertex 37.2099 23.1385 103.403
      vertex 37.2098 48.5415 103.403
      vertex 37.2098 23.1385 103.403
    endloop
  endfacet
  facet normal 0 0 1
    outer loop
      vertex 37.2099 48.5415 103.403
      vertex 38.9817 49.1623 103.403
      vertex 37.2099 50.1853 103.403
    endloop
  endfacet
  facet normal 0 0 1
    outer loop
      vertex 38.9817 49.1623 103.403
      vertex 37.2099 48.5415 103.403
      vertex 38.9817 22.5177 103.403
    endloop
  endfacet
  facet normal -0 0 1
    outer loop
      vertex 37.2099 23.1385 103.403
      vertex 38.9817 22.5177 103.403
      vertex 37.2099 48.5415 103.403
    endloop
  endfacet
  facet normal 0 0 1
    outer loop
      vertex 38.9817 22.5177 103.403
      vertex 37.2099 23.1385 103.403
      vertex 37.2099 21.4947 103.403
    endloop
  endfacet
  facet normal 1 0 0
    outer loop
      vertex 37.2098 50.1853 104.426
      vertex 37.2098 48.5415 103.403
      vertex 37.2098 50.1853 103.403
    endloop
  endfacet
  facet normal 1 0 0
    outer loop
      vertex 37.2098 50.1853 104.426
      vertex 37.2098 23.1385 103.403
      vertex 37.2098 48.5415 103.403
    endloop
  endfacet
  facet normal 1 -0 0
    outer loop
      vertex 37.2098 21.4947 104.426
      vertex 37.2098 23.1385 103.403
      vertex 37.2098 50.1853 104.426
    endloop
  endfacet
  facet normal 1 0 0
    outer loop
      vertex 37.2098 23.1385 103.403
      vertex 37.2098 21.4947 104.426
      vertex 37.2098 21.4947 103.403
    endloop
  endfacet
  facet normal 0 0 1
    outer loop
      vertex 35.438 49.5645 104.426
      vertex 37.2098 50.1853 104.426
      vertex 35.438 51.2083 104.426
    endloop
  endfacet
  facet normal 0 0 1
    outer loop
      vertex 37.2098 50.1853 104.426
      vertex 35.438 49.5645 104.426
      vertex 37.2098 21.4947 104.426
    endloop
  endfacet
  facet normal -0 0 1
    outer loop
      vertex 35.438 22.1155 104.426
      vertex 37.2098 21.4947 104.426
      vertex 35.438 49.5645 104.426
    endloop
  endfacet
  facet normal 0 0 1
    outer loop
      vertex 37.2098 21.4947 104.426
      vertex 35.438 22.1155 104.426
      vertex 35.438 20.4717 104.426
    endloop
  endfacet
  facet normal 1 0 0
    outer loop
      vertex 35.4379 51.2083 105.449
      vertex 35.4379 49.5645 104.426
      vertex 35.4379 51.2083 104.426
    endloop
  endfacet
  facet normal 1 0 0
    outer loop
      vertex 35.4379 51.2083 105.449
      vertex 35.4379 22.1155 104.426
      vertex 35.4379 49.5645 104.426
    endloop
  endfacet
  facet normal 1 -0 0
    outer loop
      vertex 35.4379 20.4717 105.449
      vertex 35.4379 22.1155 104.426
      vertex 35.4379 51.2083 105.449
    endloop
  endfacet
  facet normal 1 0 0
    outer loop
      vertex 35.4379 22.1155 104.426
      vertex 35.4379 20.4717 105.449
      vertex 35.4379 20.4717 104.426
    endloop
  endfacet
  facet normal 0 0 1
    outer loop
      vertex 33.6661 50.5875 105.449
      vertex 35.0342 21.8824 105.449
      vertex 35.0342 49.7976 105.449
    endloop
  endfacet
  facet normal 0 0 1
    outer loop
      vertex 35.0342 21.8824 105.449
      vertex 33.6661 50.5875 105.449
      vertex 33.6661 21.0925 105.449
    endloop
  endfacet
  facet normal 0 0 1
    outer loop
      vertex 35.0342 49.7976 105.449
      vertex 35.4379 51.2083 105.449
      vertex 35.0342 51.4414 105.449
    endloop
  endfacet
  facet normal 0 0 1
    outer loop
      vertex 35.4379 51.2083 105.449
      vertex 35.0342 49.7976 105.449
      vertex 35.4379 20.4717 105.449
    endloop
  endfacet
  facet normal -0 0 1
    outer loop
      vertex 35.0342 21.8824 105.449
      vertex 35.4379 20.4717 105.449
      vertex 35.0342 49.7976 105.449
    endloop
  endfacet
  facet normal 0 0 1
    outer loop
      vertex 35.4379 20.4717 105.449
      vertex 35.0342 21.8824 105.449
      vertex 35.0342 20.2385 105.449
    endloop
  endfacet
  facet normal 1 -0 0
    outer loop
      vertex 33.666 21.0925 106.472
      vertex 33.666 50.5875 105.449
      vertex 33.666 50.5875 106.472
    endloop
  endfacet
  facet normal 1 0 0
    outer loop
      vertex 33.666 50.5875 105.449
      vertex 33.666 21.0925 106.472
      vertex 33.666 21.0925 105.449
    endloop
  endfacet
  facet normal 0 0 1
    outer loop
      vertex 31.8942 51.6105 106.472
      vertex 33.666 21.0925 106.472
      vertex 33.666 50.5875 106.472
    endloop
  endfacet
  facet normal 0 0 1
    outer loop
      vertex 33.666 21.0925 106.472
      vertex 31.8942 51.6105 106.472
      vertex 31.8942 20.0695 106.472
    endloop
  endfacet
  facet normal 1 -0 0
    outer loop
      vertex 31.8941 20.0695 107.495
      vertex 31.8941 51.6105 106.472
      vertex 31.8941 51.6105 107.495
    endloop
  endfacet
  facet normal 1 0 0
    outer loop
      vertex 31.8941 51.6105 106.472
      vertex 31.8941 20.0695 107.495
      vertex 31.8941 20.0695 106.472
    endloop
  endfacet
  facet normal 0 0 1
    outer loop
      vertex 30.1223 52.6335 107.495
      vertex 31.8941 20.0695 107.495
      vertex 31.8941 51.6105 107.495
    endloop
  endfacet
  facet normal 0 0 1
    outer loop
      vertex 31.8941 20.0695 107.495
      vertex 30.1223 52.6335 107.495
      vertex 30.1223 19.0465 107.495
    endloop
  endfacet
  facet normal 1 -0 0
    outer loop
      vertex 30.1222 19.0465 108.518
      vertex 30.1222 52.6335 107.495
      vertex 30.1222 52.6335 108.518
    endloop
  endfacet
  facet normal 1 0 0
    outer loop
      vertex 30.1222 52.6335 107.495
      vertex 30.1222 19.0465 108.518
      vertex 30.1222 19.0465 107.495
    endloop
  endfacet
  facet normal 0 0 1
    outer loop
      vertex 28.9538 53.3081 108.518
      vertex 30.1222 19.0465 108.518
      vertex 30.1222 52.6335 108.518
    endloop
  endfacet
  facet normal 0 0 1
    outer loop
      vertex 30.1222 19.0465 108.518
      vertex 28.9538 53.3081 108.518
      vertex 28.9538 18.3719 108.518
    endloop
  endfacet
  facet normal 0.499986 -0.866033 -0.00011186
    outer loop
      vertex 35.4379 20.4717 104.426
      vertex 35.0342 20.2385 105.449
      vertex 34.3501 19.8436 105.054
    endloop
  endfacet
  facet normal 0.500199 -0.86591 0
    outer loop
      vertex 35.0342 20.2385 105.449
      vertex 35.4379 20.4717 104.426
      vertex 35.4379 20.4717 105.449
    endloop
  endfacet
  facet normal 0.500019 -0.866015 0
    outer loop
      vertex 37.2098 21.4947 104.426
      vertex 35.438 20.4717 104.426
      vertex 37.2098 21.4947 103.403
    endloop
  endfacet
  facet normal 0.500019 -0.866015 0
    outer loop
      vertex 38.9817 22.5177 103.403
      vertex 37.2099 21.4947 103.403
      vertex 38.9817 22.5177 102.38
    endloop
  endfacet
  facet normal 0.500019 -0.866015 0
    outer loop
      vertex 40.7536 23.5407 102.38
      vertex 38.9818 22.5177 102.38
      vertex 40.7536 23.5407 101.357
    endloop
  endfacet
  facet normal 0.500019 -0.866015 0
    outer loop
      vertex 42.5255 24.5637 101.357
      vertex 40.7537 23.5407 101.357
      vertex 42.5255 24.5637 100.334
    endloop
  endfacet
  facet normal 0.499997 -0.866027 0
    outer loop
      vertex 44.2974 25.5867 100.334
      vertex 42.5255 24.5637 100.334
      vertex 44.2974 25.5867 99.311
    endloop
  endfacet
  facet normal 0.499997 -0.866027 0
    outer loop
      vertex 46.0693 26.6097 99.311
      vertex 44.2974 25.5867 99.311
      vertex 46.0693 26.6097 98.288
    endloop
  endfacet
  facet normal 0.499997 -0.866027 0
    outer loop
      vertex 47.8412 27.6327 98.288
      vertex 46.0693 26.6097 98.288
      vertex 47.8412 27.6327 97.265
    endloop
  endfacet
  facet normal 0.499997 -0.866027 0
    outer loop
      vertex 49.6131 28.6557 97.265
      vertex 47.8412 27.6327 97.265
      vertex 49.6131 28.6557 96.242
    endloop
  endfacet
  facet normal 0.499997 -0.866027 0
    outer loop
      vertex 51.385 29.6787 96.242
      vertex 49.6131 28.6557 96.242
      vertex 51.385 29.6787 95.219
    endloop
  endfacet
  facet normal 0.499997 -0.866027 0
    outer loop
      vertex 53.1569 30.7017 95.219
      vertex 51.385 29.6787 95.219
      vertex 53.1569 30.7017 94.196
    endloop
  endfacet
  facet normal 0.499997 -0.866027 0
    outer loop
      vertex 54.9288 31.7247 94.196
      vertex 53.1569 30.7017 94.196
      vertex 54.9288 31.7247 93.173
    endloop
  endfacet
  facet normal 0.499997 -0.866027 1.01804e-05
    outer loop
      vertex 56.6834 32.7377 92.16
      vertex 56.7007 32.7477 93.173
      vertex 54.9288 31.7247 93.173
    endloop
  endfacet
  facet normal 0.500444 -0.865769 0
    outer loop
      vertex 56.7007 32.7477 93.173
      vertex 56.6834 32.7377 92.16
      vertex 56.7007 32.7477 92.16
    endloop
  endfacet
  facet normal 0.500038 0.866003 -0
    outer loop
      vertex 35.4379 51.2083 104.426
      vertex 35.0342 51.4414 105.449
      vertex 35.4379 51.2083 105.449
    endloop
  endfacet
  facet normal 0.500034 0.866006 -2.22726e-06
    outer loop
      vertex 35.0342 51.4414 105.449
      vertex 35.4379 51.2083 104.426
      vertex 34.3501 51.8364 105.054
    endloop
  endfacet
  facet normal 0.500019 0.866015 -0
    outer loop
      vertex 37.2098 50.1853 103.403
      vertex 35.438 51.2083 104.426
      vertex 37.2098 50.1853 104.426
    endloop
  endfacet
  facet normal 0.500019 0.866015 -0
    outer loop
      vertex 38.9817 49.1623 102.38
      vertex 37.2099 50.1853 103.403
      vertex 38.9817 49.1623 103.403
    endloop
  endfacet
  facet normal 0.500019 0.866015 -0
    outer loop
      vertex 40.7536 48.1393 101.357
      vertex 38.9818 49.1623 102.38
      vertex 40.7536 48.1393 102.38
    endloop
  endfacet
  facet normal 0.500019 0.866015 -0
    outer loop
      vertex 42.5255 47.1163 100.334
      vertex 40.7537 48.1393 101.357
      vertex 42.5255 47.1163 101.357
    endloop
  endfacet
  facet normal 0.499997 0.866027 -0
    outer loop
      vertex 44.2974 46.0933 99.311
      vertex 42.5255 47.1163 100.334
      vertex 44.2974 46.0933 100.334
    endloop
  endfacet
  facet normal 0.499997 0.866027 -0
    outer loop
      vertex 46.0693 45.0703 98.288
      vertex 44.2974 46.0933 99.311
      vertex 46.0693 45.0703 99.311
    endloop
  endfacet
  facet normal 0.499997 0.866027 -0
    outer loop
      vertex 47.8412 44.0473 97.265
      vertex 46.0693 45.0703 98.288
      vertex 47.8412 44.0473 98.288
    endloop
  endfacet
  facet normal 0.499997 0.866027 -0
    outer loop
      vertex 49.6131 43.0243 96.242
      vertex 47.8412 44.0473 97.265
      vertex 49.6131 43.0243 97.265
    endloop
  endfacet
  facet normal 0.499997 0.866027 -0
    outer loop
      vertex 51.385 42.0013 95.219
      vertex 49.6131 43.0243 96.242
      vertex 51.385 42.0013 96.242
    endloop
  endfacet
  facet normal 0.499997 0.866027 -0
    outer loop
      vertex 53.1569 40.9783 94.196
      vertex 51.385 42.0013 95.219
      vertex 53.1569 40.9783 95.219
    endloop
  endfacet
  facet normal 0.499997 0.866027 -0
    outer loop
      vertex 54.9288 39.9553 93.173
      vertex 53.1569 40.9783 94.196
      vertex 54.9288 39.9553 94.196
    endloop
  endfacet
  facet normal 0.500444 0.865769 0
    outer loop
      vertex 56.6834 38.9423 92.16
      vertex 56.7007 38.9323 93.173
      vertex 56.7007 38.9323 92.16
    endloop
  endfacet
  facet normal 0.499997 0.866027 1.01804e-05
    outer loop
      vertex 56.7007 38.9323 93.173
      vertex 56.6834 38.9423 92.16
      vertex 54.9288 39.9553 93.173
    endloop
  endfacet
  facet normal -0 0 -1
    outer loop
      vertex 62.0767 35.84 0
      vertex 0 0 0
      vertex 0 71.68 0
    endloop
  endfacet
  facet normal -1 0 0
    outer loop
      vertex 0 0 70.8267
      vertex 0 4.29501 79.36
      vertex 0 4.29501 70.8267
    endloop
  endfacet
  facet normal -1 -0 0
    outer loop
      vertex 0 4.29501 79.36
      vertex 0 0 70.8267
      vertex 0 0 79.36
    endloop
  endfacet
  facet normal -1 0 0
    outer loop
      vertex 0 0 58.0267
      vertex 0 4.29501 66.56
      vertex 0 4.29501 58.0267
    endloop
  endfacet
  facet normal -1 -0 0
    outer loop
      vertex 0 4.29501 66.56
      vertex 0 0 58.0267
      vertex 0 0 66.56
    endloop
  endfacet
  facet normal -1 0 0
    outer loop
      vertex 0 5.90781 58.0267
      vertex 0 8.05822 66.56
      vertex 0 8.05822 58.0267
    endloop
  endfacet
  facet normal -1 -0 0
    outer loop
      vertex 0 8.05822 66.56
      vertex 0 5.90781 58.0267
      vertex 0 5.90781 66.56
    endloop
  endfacet
  facet normal -1 0 0
    outer loop
      vertex 0 63.626 70.8267
      vertex 0 65.7764 79.36
      vertex 0 65.7764 70.8267
    endloop
  endfacet
  facet normal -1 -0 0
    outer loop
      vertex 0 65.7764 79.36
      vertex 0 63.626 70.8267
      vertex 0 63.626 79.36
    endloop
  endfacet
  facet normal -1 0 0
    outer loop
      vertex 0 71.68 0
      vertex 0 67.3892 53.76
      vertex 0 71.68 53.76
    endloop
  endfacet
  facet normal -1 0 0
    outer loop
      vertex 0 63.626 66.56
      vertex 0 67.3892 58.0267
      vertex 0 67.3892 53.76
    endloop
  endfacet
  facet normal -1 0 0
    outer loop
      vertex 0 67.3892 58.0267
      vertex 0 65.7764 66.56
      vertex 0 67.3892 66.56
    endloop
  endfacet
  facet normal -1 0 0
    outer loop
      vertex 0 67.3892 66.56
      vertex 0 65.7764 66.56
      vertex 0 67.3892 70.8267
    endloop
  endfacet
  facet normal -1 0 0
    outer loop
      vertex 0 65.7764 70.8267
      vertex 0 67.3892 70.8267
      vertex 0 65.7764 66.56
    endloop
  endfacet
  facet normal -1 0 0
    outer loop
      vertex 0 67.3892 70.8267
      vertex 0 65.7764 70.8267
      vertex 0 67.3892 79.36
    endloop
  endfacet
  facet normal -1 0 0
    outer loop
      vertex 0 8.05822 53.76
      vertex 0 67.3892 53.76
      vertex 0 71.68 0
    endloop
  endfacet
  facet normal -1 0 0
    outer loop
      vertex 0 67.3892 58.0267
      vertex 0 63.626 66.56
      vertex 0 65.7764 66.56
    endloop
  endfacet
  facet normal -1 0 0
    outer loop
      vertex 0 8.05822 70.8267
      vertex 0 63.626 70.8267
      vertex 0 63.626 66.56
    endloop
  endfacet
  facet normal -1 0 0
    outer loop
      vertex 0 63.626 70.8267
      vertex 0 8.05822 70.8267
      vertex 0 63.626 79.36
    endloop
  endfacet
  facet normal -1 0 0
    outer loop
      vertex 0 8.05822 58.0267
      vertex 0 63.626 66.56
      vertex 0 8.05822 53.76
    endloop
  endfacet
  facet normal -1 0 0
    outer loop
      vertex 0 67.3892 53.76
      vertex 0 8.05822 53.76
      vertex 0 63.626 66.56
    endloop
  endfacet
  facet normal -1 0 0
    outer loop
      vertex 0 0 0
      vertex 0 8.05822 53.76
      vertex 0 71.68 0
    endloop
  endfacet
  facet normal -1 0 0
    outer loop
      vertex 0 4.29501 58.0267
      vertex 0 5.90781 58.0267
      vertex 0 5.90781 53.76
    endloop
  endfacet
  facet normal -1 0 0
    outer loop
      vertex 0 5.90781 58.0267
      vertex 0 4.29501 58.0267
      vertex 0 5.90781 66.56
    endloop
  endfacet
  facet normal -1 0 0
    outer loop
      vertex 0 4.29501 58.0267
      vertex 0 5.90781 53.76
      vertex 0 4.29501 53.76
    endloop
  endfacet
  facet normal -1 -0 0
    outer loop
      vertex 0 8.05822 53.76
      vertex 0 0 0
      vertex 0 5.90781 53.76
    endloop
  endfacet
  facet normal -1 -0 0
    outer loop
      vertex 0 5.90781 53.76
      vertex 0 0 0
      vertex 0 4.29501 53.76
    endloop
  endfacet
  facet normal -1 -0 0
    outer loop
      vertex 0 4.29501 53.76
      vertex 0 0 0
      vertex 0 0 53.76
    endloop
  endfacet
  facet normal -1 0 0
    outer loop
      vertex 0 67.3892 58.0267
      vertex 0 71.68 66.56
      vertex 0 71.68 58.0267
    endloop
  endfacet
  facet normal -1 -0 0
    outer loop
      vertex 0 71.68 66.56
      vertex 0 67.3892 58.0267
      vertex 0 67.3892 66.56
    endloop
  endfacet
  facet normal -1 0 0
    outer loop
      vertex 0 67.3892 70.8267
      vertex 0 71.68 79.36
      vertex 0 71.68 70.8267
    endloop
  endfacet
  facet normal -1 -0 0
    outer loop
      vertex 0 71.68 79.36
      vertex 0 67.3892 70.8267
      vertex 0 67.3892 79.36
    endloop
  endfacet
  facet normal -1 0 0
    outer loop
      vertex 0 67.3892 83.6267
      vertex 0 71.68 92.16
      vertex 0 71.68 83.6267
    endloop
  endfacet
  facet normal -1 0 0
    outer loop
      vertex 0 65.7764 79.36
      vertex 0 67.3892 79.36
      vertex 0 65.7764 70.8267
    endloop
  endfacet
  facet normal -1 0 0
    outer loop
      vertex 0 67.3892 79.36
      vertex 0 65.7764 79.36
      vertex 0 67.3892 83.6267
    endloop
  endfacet
  facet normal -1 0 0
    outer loop
      vertex 0 65.7764 83.6267
      vertex 0 67.3892 83.6267
      vertex 0 65.7764 79.36
    endloop
  endfacet
  facet normal -1 0 0
    outer loop
      vertex 0 65.7764 83.6267
      vertex 0 71.68 92.16
      vertex 0 67.3892 83.6267
    endloop
  endfacet
  facet normal -1 0 0
    outer loop
      vertex 0 63.626 83.6267
      vertex 0 71.68 92.16
      vertex 0 65.7764 83.6267
    endloop
  endfacet
  facet normal -1 0 0
    outer loop
      vertex 0 8.05822 66.56
      vertex 0 63.626 66.56
      vertex 0 8.05822 58.0267
    endloop
  endfacet
  facet normal -1 0 0
    outer loop
      vertex 0 8.05822 70.8267
      vertex 0 63.626 66.56
      vertex 0 8.05822 66.56
    endloop
  endfacet
  facet normal -1 -0 0
    outer loop
      vertex 0 63.626 79.36
      vertex 0 8.05822 70.8267
      vertex 0 63.626 83.6267
    endloop
  endfacet
  facet normal -1 0 0
    outer loop
      vertex 0 4.29501 83.6267
      vertex 0 63.626 83.6267
      vertex 0 8.05822 70.8267
    endloop
  endfacet
  facet normal -1 0 0
    outer loop
      vertex 0 4.29501 79.36
      vertex 0 8.05822 70.8267
      vertex 0 5.90781 70.8267
    endloop
  endfacet
  facet normal -1 0 0
    outer loop
      vertex 0 4.29501 66.56
      vertex 0 5.90781 66.56
      vertex 0 4.29501 58.0267
    endloop
  endfacet
  facet normal -1 0 0
    outer loop
      vertex 0 5.90781 66.56
      vertex 0 4.29501 66.56
      vertex 0 5.90781 70.8267
    endloop
  endfacet
  facet normal -1 0 0
    outer loop
      vertex 0 4.29501 70.8267
      vertex 0 5.90781 70.8267
      vertex 0 4.29501 66.56
    endloop
  endfacet
  facet normal -1 0 0
    outer loop
      vertex 0 4.29501 79.36
      vertex 0 5.90781 70.8267
      vertex 0 4.29501 70.8267
    endloop
  endfacet
  facet normal -1 0 0
    outer loop
      vertex 0 4.29501 83.6267
      vertex 0 8.05822 70.8267
      vertex 0 4.29501 79.36
    endloop
  endfacet
  facet normal -1 0 0
    outer loop
      vertex 0 0 92.16
      vertex 0 63.626 83.6267
      vertex 0 4.29501 83.6267
    endloop
  endfacet
  facet normal -1 0 0
    outer loop
      vertex 0 0 92.16
      vertex 0 4.29501 83.6267
      vertex 0 0 83.6267
    endloop
  endfacet
  facet normal -1 0 0
    outer loop
      vertex 0 63.626 83.6267
      vertex 0 0 92.16
      vertex 0 71.68 92.16
    endloop
  endfacet
  facet normal 0 0 1
    outer loop
      vertex 0 71.68 92.16
      vertex 0.0173202 0.00999985 92.16
      vertex 0.0173202 71.67 92.16
    endloop
  endfacet
  facet normal 0 0 1
    outer loop
      vertex 0.0173202 0.00999985 92.16
      vertex 0 71.68 92.16
      vertex 0 0 92.16
    endloop
  endfacet
  facet normal 0 0 1
    outer loop
      vertex 56.6834 38.9423 92.16
      vertex 56.7007 38.9438 92.16
      vertex 56.6834 38.9538 92.16
    endloop
  endfacet
  facet normal 0 0 1
    outer loop
      vertex 56.7007 38.9438 92.16
      vertex 56.6834 38.9423 92.16
      vertex 56.7007 38.9323 92.16
    endloop
  endfacet
  facet normal -0 0 1
    outer loop
      vertex 56.6834 32.7377 92.16
      vertex 56.7007 32.7362 92.16
      vertex 56.7007 32.7477 92.16
    endloop
  endfacet
  facet normal 0 0 1
    outer loop
      vertex 56.7007 32.7362 92.16
      vertex 56.6834 32.7377 92.16
      vertex 56.6834 32.7262 92.16
    endloop
  endfacet
  facet normal 0 0 1
    outer loop
      vertex 12.1856 62.9893 89.59
      vertex 6.80959 47.7867 89.59
      vertex 12.1856 47.7867 89.59
    endloop
  endfacet
  facet normal 0 0 1
    outer loop
      vertex 6.80959 47.7867 89.59
      vertex 1.43359 69.1969 89.59
      vertex 6.80959 23.8933 89.59
    endloop
  endfacet
  facet normal 0 0 1
    outer loop
      vertex 1.43359 69.1969 89.59
      vertex 6.80959 47.7867 89.59
      vertex 12.1856 62.9893 89.59
    endloop
  endfacet
  facet normal -0 0 1
    outer loop
      vertex 6.80959 23.8933 89.59
      vertex 12.1856 8.69073 89.59
      vertex 12.1856 23.8933 89.59
    endloop
  endfacet
  facet normal 0 0 1
    outer loop
      vertex 6.80959 23.8933 89.59
      vertex 1.43359 2.48306 89.59
      vertex 12.1856 8.69073 89.59
    endloop
  endfacet
  facet normal 0 0 1
    outer loop
      vertex 1.43359 2.48306 89.59
      vertex 6.80959 23.8933 89.59
      vertex 1.43359 69.1969 89.59
    endloop
  endfacet
  facet normal 1 -0 0
    outer loop
      vertex 1.43359 2.48306 92.9777
      vertex 1.43359 69.1969 89.59
      vertex 1.43359 69.1969 92.9777
    endloop
  endfacet
  facet normal 1 0 0
    outer loop
      vertex 1.43359 69.1969 89.59
      vertex 1.43359 2.48306 92.9777
      vertex 1.43359 2.48306 89.59
    endloop
  endfacet
  facet normal -1 0 0
    outer loop
      vertex 12.1856 8.69073 89.59
      vertex 12.1856 23.8933 98.837
      vertex 12.1856 23.8933 89.59
    endloop
  endfacet
  facet normal -1 -0 0
    outer loop
      vertex 12.1856 23.8933 98.837
      vertex 12.1856 8.69073 89.59
      vertex 12.1856 8.69073 98.837
    endloop
  endfacet
  facet normal 0 -1 0
    outer loop
      vertex 12.1856 23.8933 89.59
      vertex 6.80959 23.8933 95.7331
      vertex 6.80959 23.8933 89.59
    endloop
  endfacet
  facet normal 0 -1 0
    outer loop
      vertex 6.80959 23.8933 95.7331
      vertex 12.1856 23.8933 89.59
      vertex 12.1856 23.8933 98.837
    endloop
  endfacet
  facet normal -1 0 0
    outer loop
      vertex 6.80959 23.8933 89.59
      vertex 6.80959 47.7867 95.7331
      vertex 6.80959 47.7867 89.59
    endloop
  endfacet
  facet normal -1 -0 0
    outer loop
      vertex 6.80959 47.7867 95.7331
      vertex 6.80959 23.8933 89.59
      vertex 6.80959 23.8933 95.7331
    endloop
  endfacet
  facet normal 0 1 -0
    outer loop
      vertex 12.1856 47.7867 89.59
      vertex 6.80959 47.7867 95.7331
      vertex 12.1856 47.7867 98.837
    endloop
  endfacet
  facet normal 0 1 0
    outer loop
      vertex 6.80959 47.7867 95.7331
      vertex 12.1856 47.7867 89.59
      vertex 6.80959 47.7867 89.59
    endloop
  endfacet
  facet normal -1 0 0
    outer loop
      vertex 12.1856 47.7867 89.59
      vertex 12.1856 62.9893 98.837
      vertex 12.1856 62.9893 89.59
    endloop
  endfacet
  facet normal -1 -0 0
    outer loop
      vertex 12.1856 62.9893 98.837
      vertex 12.1856 47.7867 89.59
      vertex 12.1856 47.7867 98.837
    endloop
  endfacet
  facet normal 0 0 1
    outer loop
      vertex 59.2095 35.84 89.59
      vertex 51.375 40.3632 89.59
      vertex 51.375 31.3167 89.59
    endloop
  endfacet
  facet normal 1 -0 0
    outer loop
      vertex 51.375 31.3167 96.242
      vertex 51.375 40.3632 89.59
      vertex 51.375 40.3632 96.242
    endloop
  endfacet
  facet normal 1 0 0
    outer loop
      vertex 51.375 40.3632 89.59
      vertex 51.375 31.3167 96.242
      vertex 51.375 31.3167 89.59
    endloop
  endfacet
  facet normal -0.500007 0 0.866021
    outer loop
      vertex 6.80959 47.7867 95.7331
      vertex 12.1856 23.8933 98.837
      vertex 12.1856 47.7867 98.837
    endloop
  endfacet
  facet normal -0.500007 0 0.866021
    outer loop
      vertex 12.1856 23.8933 98.837
      vertex 6.80959 47.7867 95.7331
      vertex 6.80959 23.8933 95.7331
    endloop
  endfacet
  facet normal -0.499995 0 0.866028
    outer loop
      vertex 12.1856 47.7867 98.837
      vertex 28.9538 53.3081 108.518
      vertex 12.1856 62.9893 98.837
    endloop
  endfacet
  facet normal -0.499995 0 0.866028
    outer loop
      vertex 28.9538 53.3081 108.518
      vertex 12.1856 47.7867 98.837
      vertex 28.9538 18.3719 108.518
    endloop
  endfacet
  facet normal -0.499995 0 0.866028
    outer loop
      vertex 12.1856 23.8933 98.837
      vertex 28.9538 18.3719 108.518
      vertex 12.1856 47.7867 98.837
    endloop
  endfacet
  facet normal -0.499995 0 0.866028
    outer loop
      vertex 28.9538 18.3719 108.518
      vertex 12.1856 23.8933 98.837
      vertex 12.1856 8.69073 98.837
    endloop
  endfacet
  facet normal 0 0 1
    outer loop
      vertex 3.71959 69.5325 79.36
      vertex 0 71.68 79.36
      vertex 0 67.3892 79.36
    endloop
  endfacet
  facet normal 0 0 -1
    outer loop
      vertex 0 71.68 83.6267
      vertex 3.71959 69.5325 83.6267
      vertex 0 67.3892 83.6267
    endloop
  endfacet
  facet normal -0.499265 0.866449 0
    outer loop
      vertex 3.71959 69.5325 79.36
      vertex 0 67.3892 83.6267
      vertex 3.71959 69.5325 83.6267
    endloop
  endfacet
  facet normal -0.499265 0.866449 0
    outer loop
      vertex 0 67.3892 83.6267
      vertex 3.71959 69.5325 79.36
      vertex 0 67.3892 79.36
    endloop
  endfacet
  facet normal 0 0 -1
    outer loop
      vertex 0 63.626 83.6267
      vertex 5.11631 68.7261 83.6267
      vertex 6.97862 67.6509 83.6267
    endloop
  endfacet
  facet normal 0 0 -1
    outer loop
      vertex 5.11631 68.7261 83.6267
      vertex 0 63.626 83.6267
      vertex 0 65.7764 83.6267
    endloop
  endfacet
  facet normal -0.499608 0.866252 0
    outer loop
      vertex 6.97862 67.6509 79.36
      vertex 0 63.626 83.6267
      vertex 6.97862 67.6509 83.6267
    endloop
  endfacet
  facet normal -0.499608 0.866252 0
    outer loop
      vertex 0 63.626 83.6267
      vertex 6.97862 67.6509 79.36
      vertex 0 63.626 79.36
    endloop
  endfacet
  facet normal 0 0 1
    outer loop
      vertex 0 65.7764 79.36
      vertex 6.97862 67.6509 79.36
      vertex 5.11631 68.7261 79.36
    endloop
  endfacet
  facet normal 0 0 1
    outer loop
      vertex 6.97862 67.6509 79.36
      vertex 0 65.7764 79.36
      vertex 0 63.626 79.36
    endloop
  endfacet
  facet normal 0.499466 -0.866333 0
    outer loop
      vertex 0 65.7764 79.36
      vertex 5.11631 68.7261 83.6267
      vertex 0 65.7764 83.6267
    endloop
  endfacet
  facet normal 0.499466 -0.866333 0
    outer loop
      vertex 5.11631 68.7261 83.6267
      vertex 0 65.7764 79.36
      vertex 5.11631 68.7261 79.36
    endloop
  endfacet
  facet normal 0 0 1
    outer loop
      vertex 3.71594 2.1454 79.36
      vertex 0 4.29501 79.36
      vertex 0 0 79.36
    endloop
  endfacet
  facet normal 0 0 -1
    outer loop
      vertex 0 4.29501 83.6267
      vertex 3.71594 2.1454 83.6267
      vertex 0 0 83.6267
    endloop
  endfacet
  facet normal -0.500736 -0.8656 0
    outer loop
      vertex 0 4.29501 79.36
      vertex 3.71594 2.1454 83.6267
      vertex 0 4.29501 83.6267
    endloop
  endfacet
  facet normal -0.500736 -0.8656 -0
    outer loop
      vertex 3.71594 2.1454 83.6267
      vertex 0 4.29501 79.36
      vertex 3.71594 2.1454 79.36
    endloop
  endfacet
  facet normal 0 0 1
    outer loop
      vertex 62.0767 35.84 79.36
      vertex 58.3608 37.9854 79.36
      vertex 58.3571 33.6925 79.36
    endloop
  endfacet
  facet normal 0 -0 -1
    outer loop
      vertex 58.3608 37.9854 83.6267
      vertex 62.0767 35.84 83.6267
      vertex 58.3571 33.6925 83.6267
    endloop
  endfacet
  facet normal 1 -0.000861888 0
    outer loop
      vertex 58.3571 33.6925 83.6267
      vertex 58.3608 37.9854 79.36
      vertex 58.3608 37.9854 83.6267
    endloop
  endfacet
  facet normal 1 -0.000861888 0
    outer loop
      vertex 58.3608 37.9854 79.36
      vertex 58.3571 33.6925 83.6267
      vertex 58.3571 33.6925 79.36
    endloop
  endfacet
  facet normal 0 0 1
    outer loop
      vertex 3.71594 2.1454 66.56
      vertex 0 4.29501 66.56
      vertex 0 0 66.56
    endloop
  endfacet
  facet normal 0 0 -1
    outer loop
      vertex 0 4.29501 70.8267
      vertex 3.71594 2.1454 70.8267
      vertex 0 0 70.8267
    endloop
  endfacet
  facet normal -0.500736 -0.8656 0
    outer loop
      vertex 0 4.29501 66.56
      vertex 3.71594 2.1454 70.8267
      vertex 0 4.29501 70.8267
    endloop
  endfacet
  facet normal -0.500736 -0.8656 -0
    outer loop
      vertex 3.71594 2.1454 70.8267
      vertex 0 4.29501 66.56
      vertex 3.71594 2.1454 66.56
    endloop
  endfacet
  facet normal 0 0 -1
    outer loop
      vertex 0 5.90781 70.8267
      vertex 6.97496 4.027 70.8267
      vertex 5.11266 2.9518 70.8267
    endloop
  endfacet
  facet normal 0 0 -1
    outer loop
      vertex 6.97496 4.027 70.8267
      vertex 0 5.90781 70.8267
      vertex 0 8.05822 70.8267
    endloop
  endfacet
  facet normal -0.500393 -0.865798 0
    outer loop
      vertex 0 8.05822 66.56
      vertex 6.97496 4.027 70.8267
      vertex 0 8.05822 70.8267
    endloop
  endfacet
  facet normal -0.500393 -0.865798 -0
    outer loop
      vertex 6.97496 4.027 70.8267
      vertex 0 8.05822 66.56
      vertex 6.97496 4.027 66.56
    endloop
  endfacet
  facet normal 0 0 1
    outer loop
      vertex 0 8.05822 66.56
      vertex 5.11266 2.9518 66.56
      vertex 6.97496 4.027 66.56
    endloop
  endfacet
  facet normal 0 0 1
    outer loop
      vertex 5.11266 2.9518 66.56
      vertex 0 8.05822 66.56
      vertex 0 5.90781 66.56
    endloop
  endfacet
  facet normal 0.500535 0.865716 -0
    outer loop
      vertex 5.11266 2.9518 66.56
      vertex 0 5.90781 70.8267
      vertex 5.11266 2.9518 70.8267
    endloop
  endfacet
  facet normal 0.500535 0.865716 0
    outer loop
      vertex 0 5.90781 70.8267
      vertex 5.11266 2.9518 66.56
      vertex 0 5.90781 66.56
    endloop
  endfacet
  facet normal 0 0 1
    outer loop
      vertex 3.71959 69.5325 66.56
      vertex 0 71.68 66.56
      vertex 0 67.3892 66.56
    endloop
  endfacet
  facet normal 0 0 -1
    outer loop
      vertex 0 71.68 70.8267
      vertex 3.71959 69.5325 70.8267
      vertex 0 67.3892 70.8267
    endloop
  endfacet
  facet normal -0.499265 0.866449 0
    outer loop
      vertex 3.71959 69.5325 66.56
      vertex 0 67.3892 70.8267
      vertex 3.71959 69.5325 70.8267
    endloop
  endfacet
  facet normal -0.499265 0.866449 0
    outer loop
      vertex 0 67.3892 70.8267
      vertex 3.71959 69.5325 66.56
      vertex 0 67.3892 66.56
    endloop
  endfacet
  facet normal 0 0 -1
    outer loop
      vertex 0 63.626 70.8267
      vertex 5.11631 68.7261 70.8267
      vertex 6.97862 67.6509 70.8267
    endloop
  endfacet
  facet normal 0 0 -1
    outer loop
      vertex 5.11631 68.7261 70.8267
      vertex 0 63.626 70.8267
      vertex 0 65.7764 70.8267
    endloop
  endfacet
  facet normal -0.499608 0.866252 0
    outer loop
      vertex 6.97862 67.6509 66.56
      vertex 0 63.626 70.8267
      vertex 6.97862 67.6509 70.8267
    endloop
  endfacet
  facet normal -0.499608 0.866252 0
    outer loop
      vertex 0 63.626 70.8267
      vertex 6.97862 67.6509 66.56
      vertex 0 63.626 66.56
    endloop
  endfacet
  facet normal 0 0 1
    outer loop
      vertex 0 65.7764 66.56
      vertex 6.97862 67.6509 66.56
      vertex 5.11631 68.7261 66.56
    endloop
  endfacet
  facet normal 0 0 1
    outer loop
      vertex 6.97862 67.6509 66.56
      vertex 0 65.7764 66.56
      vertex 0 63.626 66.56
    endloop
  endfacet
  facet normal 0.499466 -0.866333 0
    outer loop
      vertex 0 65.7764 66.56
      vertex 5.11631 68.7261 70.8267
      vertex 0 65.7764 70.8267
    endloop
  endfacet
  facet normal 0.499466 -0.866333 0
    outer loop
      vertex 5.11631 68.7261 70.8267
      vertex 0 65.7764 66.56
      vertex 5.11631 68.7261 66.56
    endloop
  endfacet
  facet normal 0 0 1
    outer loop
      vertex 62.0767 35.84 66.56
      vertex 58.3608 37.9854 66.56
      vertex 58.3571 33.6925 66.56
    endloop
  endfacet
  facet normal 0 -0 -1
    outer loop
      vertex 58.3608 37.9854 70.8267
      vertex 62.0767 35.84 70.8267
      vertex 58.3571 33.6925 70.8267
    endloop
  endfacet
  facet normal 1 -0.000861888 0
    outer loop
      vertex 58.3571 33.6925 70.8267
      vertex 58.3608 37.9854 66.56
      vertex 58.3608 37.9854 70.8267
    endloop
  endfacet
  facet normal 1 -0.000861888 0
    outer loop
      vertex 58.3608 37.9854 66.56
      vertex 58.3571 33.6925 70.8267
      vertex 58.3571 33.6925 66.56
    endloop
  endfacet
  facet normal 0 0 -1
    outer loop
      vertex 56.9604 32.8861 70.8267
      vertex 55.1017 39.867 70.8267
      vertex 56.964 38.7918 70.8267
    endloop
  endfacet
  facet normal 0 -0 -1
    outer loop
      vertex 55.1017 39.867 70.8267
      vertex 56.9604 32.8861 70.8267
      vertex 55.0981 31.8109 70.8267
    endloop
  endfacet
  facet normal 1 -0.000446866 0
    outer loop
      vertex 55.0981 31.8109 70.8267
      vertex 55.1017 39.867 66.56
      vertex 55.1017 39.867 70.8267
    endloop
  endfacet
  facet normal 1 -0.000446866 0
    outer loop
      vertex 55.1017 39.867 66.56
      vertex 55.0981 31.8109 70.8267
      vertex 55.0981 31.8109 66.56
    endloop
  endfacet
  facet normal 0 0 1
    outer loop
      vertex 55.1017 39.867 66.56
      vertex 56.9604 32.8861 66.56
      vertex 56.964 38.7918 66.56
    endloop
  endfacet
  facet normal 0 0 1
    outer loop
      vertex 56.9604 32.8861 66.56
      vertex 55.1017 39.867 66.56
      vertex 55.0981 31.8109 66.56
    endloop
  endfacet
  facet normal -1 0.00060958 0
    outer loop
      vertex 56.9604 32.8861 66.56
      vertex 56.964 38.7918 70.8267
      vertex 56.964 38.7918 66.56
    endloop
  endfacet
  facet normal -1 0.00060958 0
    outer loop
      vertex 56.964 38.7918 70.8267
      vertex 56.9604 32.8861 66.56
      vertex 56.9604 32.8861 70.8267
    endloop
  endfacet
  facet normal 0 0 1
    outer loop
      vertex 3.71594 2.1454 53.76
      vertex 0 4.29501 53.76
      vertex 0 0 53.76
    endloop
  endfacet
  facet normal 0 0 -1
    outer loop
      vertex 0 4.29501 58.0267
      vertex 3.71594 2.1454 58.0267
      vertex 0 0 58.0267
    endloop
  endfacet
  facet normal -0.500736 -0.8656 0
    outer loop
      vertex 0 4.29501 53.76
      vertex 3.71594 2.1454 58.0267
      vertex 0 4.29501 58.0267
    endloop
  endfacet
  facet normal -0.500736 -0.8656 -0
    outer loop
      vertex 3.71594 2.1454 58.0267
      vertex 0 4.29501 53.76
      vertex 3.71594 2.1454 53.76
    endloop
  endfacet
  facet normal 0 0 -1
    outer loop
      vertex 0 5.90781 58.0267
      vertex 6.97496 4.027 58.0267
      vertex 5.11266 2.9518 58.0267
    endloop
  endfacet
  facet normal 0 0 -1
    outer loop
      vertex 6.97496 4.027 58.0267
      vertex 0 5.90781 58.0267
      vertex 0 8.05822 58.0267
    endloop
  endfacet
  facet normal -0.500393 -0.865798 0
    outer loop
      vertex 0 8.05822 53.76
      vertex 6.97496 4.027 58.0267
      vertex 0 8.05822 58.0267
    endloop
  endfacet
  facet normal -0.500393 -0.865798 -0
    outer loop
      vertex 6.97496 4.027 58.0267
      vertex 0 8.05822 53.76
      vertex 6.97496 4.027 53.76
    endloop
  endfacet
  facet normal 0 0 1
    outer loop
      vertex 0 8.05822 53.76
      vertex 5.11266 2.9518 53.76
      vertex 6.97496 4.027 53.76
    endloop
  endfacet
  facet normal 0 0 1
    outer loop
      vertex 5.11266 2.9518 53.76
      vertex 0 8.05822 53.76
      vertex 0 5.90781 53.76
    endloop
  endfacet
  facet normal 0.500535 0.865716 -0
    outer loop
      vertex 5.11266 2.9518 53.76
      vertex 0 5.90781 58.0267
      vertex 5.11266 2.9518 58.0267
    endloop
  endfacet
  facet normal 0.500535 0.865716 0
    outer loop
      vertex 0 5.90781 58.0267
      vertex 5.11266 2.9518 53.76
      vertex 0 5.90781 53.76
    endloop
  endfacet
  facet normal 0 0 1
    outer loop
      vertex 62.0767 35.84 53.76
      vertex 58.3608 37.9854 53.76
      vertex 58.3571 33.6925 53.76
    endloop
  endfacet
  facet normal 0 -0 -1
    outer loop
      vertex 58.3608 37.9854 58.0267
      vertex 62.0767 35.84 58.0267
      vertex 58.3571 33.6925 58.0267
    endloop
  endfacet
  facet normal 1 -0.000861888 0
    outer loop
      vertex 58.3571 33.6925 58.0267
      vertex 58.3608 37.9854 53.76
      vertex 58.3608 37.9854 58.0267
    endloop
  endfacet
  facet normal 1 -0.000861888 0
    outer loop
      vertex 58.3608 37.9854 53.76
      vertex 58.3571 33.6925 58.0267
      vertex 58.3571 33.6925 53.76
    endloop
  endfacet
  facet normal 0 0 1
    outer loop
      vertex 3.71959 69.5325 53.76
      vertex 0 71.68 53.76
      vertex 0 67.3892 53.76
    endloop
  endfacet
  facet normal 0 0 -1
    outer loop
      vertex 0 71.68 58.0267
      vertex 3.71959 69.5325 58.0267
      vertex 0 67.3892 58.0267
    endloop
  endfacet
  facet normal -0.499265 0.866449 0
    outer loop
      vertex 3.71959 69.5325 53.76
      vertex 0 67.3892 58.0267
      vertex 3.71959 69.5325 58.0267
    endloop
  endfacet
  facet normal -0.499265 0.866449 0
    outer loop
      vertex 0 67.3892 58.0267
      vertex 3.71959 69.5325 53.76
      vertex 0 67.3892 53.76
    endloop
  endfacet
  facet normal 0 0 1
    outer loop
      vertex 62.0767 35.84 40.96
      vertex 58.3608 37.9854 40.96
      vertex 58.3571 33.6925 40.96
    endloop
  endfacet
  facet normal 0 -0 -1
    outer loop
      vertex 58.3608 37.9854 45.2267
      vertex 62.0767 35.84 45.2267
      vertex 58.3571 33.6925 45.2267
    endloop
  endfacet
  facet normal 1 -0.000861888 0
    outer loop
      vertex 58.3571 33.6925 45.2267
      vertex 58.3608 37.9854 40.96
      vertex 58.3608 37.9854 45.2267
    endloop
  endfacet
  facet normal 1 -0.000861888 0
    outer loop
      vertex 58.3608 37.9854 40.96
      vertex 58.3571 33.6925 45.2267
      vertex 58.3571 33.6925 40.96
    endloop
  endfacet
endsolid OpenSCAD_Model
